<?xml version="1.0" standalone="yes"?>

<svg version="1.1" viewBox="0.0 0.0 200.0 205.0" fill="none" stroke="none" stroke-linecap="square" stroke-miterlimit="10" xmlns="http://www.w3.org/2000/svg" xmlns:xlink="http://www.w3.org/1999/xlink"><clipPath id="p.0"><path d="m0 0l200.0 0l0 205.0l-200.0 0l0 -205.0z" clip-rule="nonzero"></path></clipPath><g clip-path="url(#p.0)"><path fill="#000000" fill-opacity="0.0" d="m0 0l200.0 0l0 205.0l-200.0 0z" fill-rule="evenodd"></path><path fill="#eeeeee" d="m35.83249 39.23057l77.37008 0l0 31.543308l-77.37008 0z" fill-rule="evenodd"></path><path stroke="#595959" stroke-width="1.0" stroke-linejoin="round" stroke-linecap="butt" d="m35.83249 39.23057l77.37008 0l0 31.543308l-77.37008 0z" fill-rule="evenodd"></path><path fill="#0097a7" d="m40.42624 52.182224l0 -5.734375l1.140625 0l1.359375 4.0625q0.1875 0.5625 0.265625 0.84375q0.109375 -0.3125 0.3125 -0.921875l1.375 -3.984375l1.015625 0l0 5.734375l-0.734375 0l0 -4.796875l-1.65625 4.796875l-0.6875 0l-1.65625 -4.875l0 4.875l-0.734375 0zm9.4453125 -1.34375l0.71875 0.09375q-0.171875 0.640625 -0.640625 1.0q-0.453125 0.34375 -1.1875 0.34375q-0.90625 0 -1.4375 -0.5625q-0.53125 -0.5625 -0.53125 -1.578125q0 -1.046875 0.53125 -1.625q0.546875 -0.578125 1.40625 -0.578125q0.828125 0 1.359375 0.578125q0.53125 0.5625 0.53125 1.59375q0 0.0625 -0.015625 0.1875l-3.09375 0q0.046875 0.671875 0.390625 1.046875q0.34375 0.359375 0.875 0.359375q0.375 0 0.640625 -0.203125q0.28125 -0.203125 0.453125 -0.65625zm-2.3125 -1.125l2.3125 0q-0.046875 -0.53125 -0.265625 -0.796875q-0.328125 -0.40625 -0.875 -0.40625q-0.484375 0 -0.8125 0.328125q-0.328125 0.328125 -0.359375 0.875zm5.4492188 1.84375l0.109375 0.609375q-0.296875 0.078125 -0.53125 0.078125q-0.390625 0 -0.609375 -0.125q-0.203125 -0.125 -0.296875 -0.3125q-0.078125 -0.203125 -0.078125 -0.84375l0 -2.390625l-0.515625 0l0 -0.546875l0.515625 0l0 -1.015625l0.703125 -0.421875l0 1.4375l0.703125 0l0 0.546875l-0.703125 0l0 2.4375q0 0.296875 0.03125 0.390625q0.046875 0.078125 0.125 0.125q0.078125 0.046875 0.234375 0.046875q0.125 0 0.3125 -0.015625zm3.3945312 0.109375q-0.390625 0.328125 -0.75 0.46875q-0.359375 0.140625 -0.78125 0.140625q-0.671875 0 -1.046875 -0.328125q-0.359375 -0.34375 -0.359375 -0.859375q0 -0.3125 0.125 -0.5625q0.140625 -0.25 0.359375 -0.390625q0.234375 -0.15625 0.515625 -0.234375q0.203125 -0.0625 0.625 -0.109375q0.859375 -0.109375 1.25 -0.25q0.015625 -0.140625 0.015625 -0.171875q0 -0.4375 -0.203125 -0.609375q-0.265625 -0.234375 -0.796875 -0.234375q-0.5 0 -0.734375 0.171875q-0.234375 0.171875 -0.359375 0.609375l-0.6875 -0.09375q0.09375 -0.4375 0.3125 -0.703125q0.21875 -0.28125 0.625 -0.421875q0.40625 -0.15625 0.9375 -0.15625q0.53125 0 0.859375 0.125q0.34375 0.125 0.5 0.328125q0.15625 0.1875 0.21875 0.46875q0.03125 0.1875 0.03125 0.65625l0 0.9375q0 0.96875 0.046875 1.234375q0.046875 0.265625 0.171875 0.5l-0.734375 0q-0.109375 -0.21875 -0.140625 -0.515625zm-0.0625 -1.5625q-0.375 0.15625 -1.140625 0.265625q-0.4375 0.0625 -0.625 0.140625q-0.171875 0.078125 -0.265625 0.234375q-0.09375 0.140625 -0.09375 0.328125q0 0.28125 0.203125 0.46875q0.21875 0.1875 0.625 0.1875q0.40625 0 0.71875 -0.171875q0.328125 -0.1875 0.46875 -0.5q0.109375 -0.234375 0.109375 -0.703125l0 -0.25zm4.4960938 2.078125l0 -0.53125q-0.390625 0.625 -1.15625 0.625q-0.5 0 -0.921875 -0.265625q-0.40625 -0.28125 -0.640625 -0.765625q-0.21875 -0.5 -0.21875 -1.140625q0 -0.609375 0.203125 -1.109375q0.203125 -0.515625 0.609375 -0.78125q0.421875 -0.28125 0.9375 -0.28125q0.375 0 0.65625 0.171875q0.296875 0.15625 0.484375 0.40625l0 -2.0625l0.703125 0l0 5.734375l-0.65625 0zm-2.21875 -2.078125q0 0.796875 0.328125 1.203125q0.34375 0.390625 0.796875 0.390625q0.46875 0 0.78125 -0.375q0.328125 -0.375 0.328125 -1.15625q0 -0.84375 -0.328125 -1.234375q-0.328125 -0.40625 -0.8125 -0.40625q-0.46875 0 -0.78125 0.390625q-0.3125 0.375 -0.3125 1.1875zm6.6835938 1.5625q-0.390625 0.328125 -0.75 0.46875q-0.359375 0.140625 -0.78125 0.140625q-0.671875 0 -1.046875 -0.328125q-0.359375 -0.34375 -0.359375 -0.859375q0 -0.3125 0.125 -0.5625q0.140625 -0.25 0.359375 -0.390625q0.234375 -0.15625 0.515625 -0.234375q0.203125 -0.0625 0.625 -0.109375q0.859375 -0.109375 1.25 -0.25q0.015625 -0.140625 0.015625 -0.171875q0 -0.4375 -0.203125 -0.609375q-0.265625 -0.234375 -0.796875 -0.234375q-0.5 0 -0.734375 0.171875q-0.234375 0.171875 -0.359375 0.609375l-0.6875 -0.09375q0.09375 -0.4375 0.3125 -0.703125q0.21875 -0.28125 0.625 -0.421875q0.40625 -0.15625 0.9375 -0.15625q0.53125 0 0.859375 0.125q0.34375 0.125 0.5 0.328125q0.15625 0.1875 0.21875 0.46875q0.03125 0.1875 0.03125 0.65625l0 0.9375q0 0.96875 0.046875 1.234375q0.046875 0.265625 0.171875 0.5l-0.734375 0q-0.109375 -0.21875 -0.140625 -0.515625zm-0.0625 -1.5625q-0.375 0.15625 -1.140625 0.265625q-0.4375 0.0625 -0.625 0.140625q-0.171875 0.078125 -0.265625 0.234375q-0.09375 0.140625 -0.09375 0.328125q0 0.28125 0.203125 0.46875q0.21875 0.1875 0.625 0.1875q0.40625 0 0.71875 -0.171875q0.328125 -0.1875 0.46875 -0.5q0.109375 -0.234375 0.109375 -0.703125l0 -0.25zm3.3398438 1.453125l0.109375 0.609375q-0.296875 0.078125 -0.53125 0.078125q-0.390625 0 -0.609375 -0.125q-0.203125 -0.125 -0.296875 -0.3125q-0.078125 -0.203125 -0.078125 -0.84375l0 -2.390625l-0.515625 0l0 -0.546875l0.515625 0l0 -1.015625l0.703125 -0.421875l0 1.4375l0.703125 0l0 0.546875l-0.703125 0l0 2.4375q0 0.296875 0.03125 0.390625q0.046875 0.078125 0.125 0.125q0.078125 0.046875 0.234375 0.046875q0.125 0 0.3125 -0.015625zm3.3945312 0.109375q-0.390625 0.328125 -0.75 0.46875q-0.359375 0.140625 -0.78125 0.140625q-0.671875 0 -1.046875 -0.328125q-0.359375 -0.34375 -0.359375 -0.859375q0 -0.3125 0.125 -0.5625q0.140625 -0.25 0.359375 -0.390625q0.234375 -0.15625 0.515625 -0.234375q0.203125 -0.0625 0.625 -0.109375q0.859375 -0.109375 1.25 -0.25q0.015625 -0.140625 0.015625 -0.171875q0 -0.4375 -0.203125 -0.609375q-0.265625 -0.234375 -0.796875 -0.234375q-0.5 0 -0.734375 0.171875q-0.234375 0.171875 -0.359375 0.609375l-0.6875 -0.09375q0.09375 -0.4375 0.3125 -0.703125q0.21875 -0.28125 0.625 -0.421875q0.40625 -0.15625 0.9375 -0.15625q0.53125 0 0.859375 0.125q0.34375 0.125 0.5 0.328125q0.15625 0.1875 0.21875 0.46875q0.03125 0.1875 0.03125 0.65625l0 0.9375q0 0.96875 0.046875 1.234375q0.046875 0.265625 0.171875 0.5l-0.734375 0q-0.109375 -0.21875 -0.140625 -0.515625zm-0.0625 -1.5625q-0.375 0.15625 -1.140625 0.265625q-0.4375 0.0625 -0.625 0.140625q-0.171875 0.078125 -0.265625 0.234375q-0.09375 0.140625 -0.09375 0.328125q0 0.28125 0.203125 0.46875q0.21875 0.1875 0.625 0.1875q0.40625 0 0.71875 -0.171875q0.328125 -0.1875 0.46875 -0.5q0.109375 -0.234375 0.109375 -0.703125l0 -0.25z" fill-rule="nonzero"></path><path fill="#000000" d="m73.90671 48.838474l0 -0.8125l0.8125 0l0 0.8125l-0.8125 0zm0 3.34375l0 -0.796875l0.8125 0l0 0.796875l-0.8125 0z" fill-rule="nonzero"></path><path fill="#000000" d="m40.36374 63.775974l0 -5.75l0.640625 0l0 0.546875q0.21875 -0.3125 0.5 -0.46875q0.296875 -0.171875 0.703125 -0.171875q0.53125 0 0.9375 0.28125q0.40625 0.265625 0.609375 0.765625q0.203125 0.5 0.203125 1.09375q0 0.640625 -0.234375 1.15625q-0.21875 0.5 -0.65625 0.78125q-0.4375 0.265625 -0.90625 0.265625q-0.359375 0 -0.640625 -0.140625q-0.28125 -0.15625 -0.453125 -0.390625l0 2.03125l-0.703125 0zm0.640625 -3.640625q0 0.796875 0.3125 1.1875q0.328125 0.375 0.796875 0.375q0.46875 0 0.796875 -0.390625q0.328125 -0.40625 0.328125 -1.234375q0 -0.796875 -0.328125 -1.1875q-0.3125 -0.390625 -0.765625 -0.390625q-0.453125 0 -0.796875 0.421875q-0.34375 0.40625 -0.34375 1.21875zm6.5117188 0.53125l0.6875 0.078125q-0.109375 0.71875 -0.578125 1.125q-0.46875 0.40625 -1.140625 0.40625q-0.859375 0 -1.375 -0.546875q-0.515625 -0.5625 -0.515625 -1.609375q0 -0.671875 0.21875 -1.171875q0.234375 -0.5 0.6875 -0.75q0.453125 -0.265625 0.984375 -0.265625q0.671875 0 1.09375 0.34375q0.4375 0.34375 0.5625 0.96875l-0.6875 0.109375q-0.09375 -0.421875 -0.34375 -0.625q-0.25 -0.21875 -0.59375 -0.21875q-0.53125 0 -0.875 0.390625q-0.328125 0.375 -0.328125 1.203125q0 0.828125 0.3125 1.21875q0.328125 0.375 0.84375 0.375q0.421875 0 0.6875 -0.25q0.28125 -0.265625 0.359375 -0.78125zm1.28125 1.515625l0 -5.734375l0.703125 0l0 5.734375l-0.703125 0zm1.1367188 1.59375l0 -0.515625l4.671875 0l0 0.515625l-4.671875 0zm6.2617188 -1.59375l-1.578125 -4.15625l0.734375 0l0.890625 2.484375q0.140625 0.40625 0.265625 0.84375q0.09375 -0.328125 0.265625 -0.796875l0.921875 -2.53125l0.71875 0l-1.5625 4.15625l-0.65625 0zm2.578125 -2.078125q0 -1.15625 0.640625 -1.703125q0.53125 -0.46875 1.3125 -0.46875q0.84375 0 1.390625 0.5625q0.546875 0.5625 0.546875 1.546875q0 0.8125 -0.25 1.265625q-0.234375 0.453125 -0.703125 0.71875q-0.453125 0.25 -0.984375 0.25q-0.875 0 -1.421875 -0.5625q-0.53125 -0.5625 -0.53125 -1.609375zm0.71875 0q0 0.796875 0.34375 1.203125q0.359375 0.390625 0.890625 0.390625q0.515625 0 0.859375 -0.390625q0.359375 -0.40625 0.359375 -1.21875q0 -0.78125 -0.359375 -1.171875q-0.34375 -0.390625 -0.859375 -0.390625q-0.53125 0 -0.890625 0.390625q-0.34375 0.390625 -0.34375 1.1875zm3.5273438 2.078125l1.515625 -2.15625l-1.40625 -2.0l0.875 0l0.640625 0.984375q0.1875 0.265625 0.296875 0.453125q0.171875 -0.25 0.3125 -0.453125l0.703125 -0.984375l0.828125 0l-1.421875 1.953125l1.53125 2.203125l-0.859375 0l-0.84375 -1.296875l-0.234375 -0.34375l-1.09375 1.640625l-0.84375 0zm7.3125 -1.34375l0.71875 0.09375q-0.171875 0.640625 -0.640625 1.0q-0.453125 0.34375 -1.1875 0.34375q-0.90625 0 -1.4375 -0.5625q-0.53125 -0.5625 -0.53125 -1.578125q0 -1.046875 0.53125 -1.625q0.546875 -0.578125 1.40625 -0.578125q0.828125 0 1.359375 0.578125q0.53125 0.5625 0.53125 1.59375q0 0.0625 -0.015625 0.1875l-3.09375 0q0.046875 0.671875 0.390625 1.046875q0.34375 0.359375 0.875 0.359375q0.375 0 0.640625 -0.203125q0.28125 -0.203125 0.453125 -0.65625zm-2.3125 -1.125l2.3125 0q-0.046875 -0.53125 -0.265625 -0.796875q-0.328125 -0.40625 -0.875 -0.40625q-0.484375 0 -0.8125 0.328125q-0.328125 0.328125 -0.359375 0.875zm3.9023438 2.46875l0 -5.734375l0.703125 0l0 5.734375l-0.703125 0zm1.1367188 1.59375l0 -0.515625l4.671875 0l0 0.515625l-4.671875 0zm4.9804688 -1.25l0.671875 0.109375q0.046875 0.3125 0.25 0.453125q0.25 0.203125 0.703125 0.203125q0.5 0 0.765625 -0.203125q0.265625 -0.1875 0.359375 -0.546875q0.046875 -0.21875 0.046875 -0.90625q-0.46875 0.546875 -1.15625 0.546875q-0.84375 0 -1.3125 -0.609375q-0.46875 -0.625 -0.46875 -1.484375q0 -0.59375 0.203125 -1.09375q0.21875 -0.515625 0.625 -0.78125q0.40625 -0.28125 0.96875 -0.28125q0.734375 0 1.203125 0.59375l0 -0.5l0.65625 0l0 3.59375q0 0.96875 -0.203125 1.375q-0.203125 0.40625 -0.625 0.640625q-0.421875 0.234375 -1.046875 0.234375q-0.75 0 -1.203125 -0.34375q-0.453125 -0.328125 -0.4375 -1.0zm0.578125 -2.5q0 0.828125 0.3125 1.203125q0.328125 0.375 0.828125 0.375q0.484375 0 0.8125 -0.375q0.328125 -0.375 0.328125 -1.171875q0 -0.765625 -0.34375 -1.140625q-0.34375 -0.390625 -0.8125 -0.390625q-0.46875 0 -0.796875 0.375q-0.328125 0.375 -0.328125 1.125zm3.9804688 2.15625l0 -4.15625l0.640625 0l0 0.640625q0.234375 -0.453125 0.4375 -0.59375q0.21875 -0.140625 0.453125 -0.140625q0.359375 0 0.734375 0.234375l-0.25 0.65625q-0.25 -0.15625 -0.515625 -0.15625q-0.234375 0 -0.421875 0.140625q-0.171875 0.140625 -0.25 0.375q-0.125 0.375 -0.125 0.828125l0 2.171875l-0.703125 0zm2.6796875 -4.921875l0 -0.8125l0.703125 0l0 0.8125l-0.703125 0zm0 4.921875l0 -4.15625l0.703125 0l0 4.15625l-0.703125 0zm4.4648438 0l0 -0.53125q-0.390625 0.625 -1.15625 0.625q-0.5 0 -0.921875 -0.265625q-0.40625 -0.28125 -0.640625 -0.765625q-0.21875 -0.5 -0.21875 -1.140625q0 -0.609375 0.203125 -1.109375q0.203125 -0.515625 0.609375 -0.78125q0.421875 -0.28125 0.9375 -0.28125q0.375 0 0.65625 0.171875q0.296875 0.15625 0.484375 0.40625l0 -2.0625l0.703125 0l0 5.734375l-0.65625 0zm-2.21875 -2.078125q0 0.796875 0.328125 1.203125q0.34375 0.390625 0.796875 0.390625q0.46875 0 0.78125 -0.375q0.328125 -0.375 0.328125 -1.15625q0 -0.84375 -0.328125 -1.234375q-0.328125 -0.40625 -0.8125 -0.40625q-0.46875 0 -0.78125 0.390625q-0.3125 0.375 -0.3125 1.1875z" fill-rule="nonzero"></path><path fill="#eeeeee" d="m35.83249 76.49639l163.22835 0l0 31.543304l-163.22835 0z" fill-rule="evenodd"></path><path stroke="#595959" stroke-width="1.0" stroke-linejoin="round" stroke-linecap="butt" d="m35.83249 76.49639l163.22835 0l0 31.543304l-163.22835 0z" fill-rule="evenodd"></path><path fill="#0097a7" d="m40.42624 89.448044l0 -5.734375l1.140625 0l1.359375 4.0625q0.1875 0.5625 0.265625 0.84375q0.109375 -0.3125 0.3125 -0.921875l1.375 -3.984375l1.015625 0l0 5.734375l-0.734375 0l0 -4.796875l-1.65625 4.796875l-0.6875 0l-1.65625 -4.875l0 4.875l-0.734375 0zm9.4453125 -1.34375l0.71875 0.09375q-0.171875 0.640625 -0.640625 1.0q-0.453125 0.34375 -1.1875 0.34375q-0.90625 0 -1.4375 -0.5625q-0.53125 -0.5625 -0.53125 -1.578125q0 -1.046875 0.53125 -1.625q0.546875 -0.578125 1.40625 -0.578125q0.828125 0 1.359375 0.578125q0.53125 0.5625 0.53125 1.59375q0 0.0625 -0.015625 0.1875l-3.09375 0q0.046875 0.671875 0.390625 1.046875q0.34375 0.359375 0.875 0.359375q0.375 0 0.640625 -0.203125q0.28125 -0.203125 0.453125 -0.65625zm-2.3125 -1.125l2.3125 0q-0.046875 -0.53125 -0.265625 -0.796875q-0.328125 -0.40625 -0.875 -0.40625q-0.484375 0 -0.8125 0.328125q-0.328125 0.328125 -0.359375 0.875zm5.4492188 1.84375l0.109375 0.609375q-0.296875 0.078125 -0.53125 0.078125q-0.390625 0 -0.609375 -0.125q-0.203125 -0.125 -0.296875 -0.3125q-0.078125 -0.203125 -0.078125 -0.84375l0 -2.390625l-0.515625 0l0 -0.546875l0.515625 0l0 -1.015625l0.703125 -0.421875l0 1.4375l0.703125 0l0 0.546875l-0.703125 0l0 2.4375q0 0.296875 0.03125 0.390625q0.046875 0.078125 0.125 0.125q0.078125 0.046875 0.234375 0.046875q0.125 0 0.3125 -0.015625zm3.3945312 0.109375q-0.390625 0.328125 -0.75 0.46875q-0.359375 0.140625 -0.78125 0.140625q-0.671875 0 -1.046875 -0.328125q-0.359375 -0.34375 -0.359375 -0.859375q0 -0.3125 0.125 -0.5625q0.140625 -0.25 0.359375 -0.390625q0.234375 -0.15625 0.515625 -0.234375q0.203125 -0.0625 0.625 -0.109375q0.859375 -0.109375 1.25 -0.25q0.015625 -0.140625 0.015625 -0.171875q0 -0.4375 -0.203125 -0.609375q-0.265625 -0.234375 -0.796875 -0.234375q-0.5 0 -0.734375 0.171875q-0.234375 0.171875 -0.359375 0.609375l-0.6875 -0.09375q0.09375 -0.4375 0.3125 -0.703125q0.21875 -0.28125 0.625 -0.421875q0.40625 -0.15625 0.9375 -0.15625q0.53125 0 0.859375 0.125q0.34375 0.125 0.5 0.328125q0.15625 0.1875 0.21875 0.46875q0.03125 0.1875 0.03125 0.65625l0 0.9375q0 0.96875 0.046875 1.234375q0.046875 0.265625 0.171875 0.5l-0.734375 0q-0.109375 -0.21875 -0.140625 -0.515625zm-0.0625 -1.5625q-0.375 0.15625 -1.140625 0.265625q-0.4375 0.0625 -0.625 0.140625q-0.171875 0.078125 -0.265625 0.234375q-0.09375 0.140625 -0.09375 0.328125q0 0.28125 0.203125 0.46875q0.21875 0.1875 0.625 0.1875q0.40625 0 0.71875 -0.171875q0.328125 -0.1875 0.46875 -0.5q0.109375 -0.234375 0.109375 -0.703125l0 -0.25zm4.4960938 2.078125l0 -0.53125q-0.390625 0.625 -1.15625 0.625q-0.5 0 -0.921875 -0.265625q-0.40625 -0.28125 -0.640625 -0.765625q-0.21875 -0.5 -0.21875 -1.140625q0 -0.609375 0.203125 -1.109375q0.203125 -0.515625 0.609375 -0.78125q0.421875 -0.28125 0.9375 -0.28125q0.375 0 0.65625 0.171875q0.296875 0.15625 0.484375 0.40625l0 -2.0625l0.703125 0l0 5.734375l-0.65625 0zm-2.21875 -2.078125q0 0.796875 0.328125 1.203125q0.34375 0.390625 0.796875 0.390625q0.46875 0 0.78125 -0.375q0.328125 -0.375 0.328125 -1.15625q0 -0.84375 -0.328125 -1.234375q-0.328125 -0.40625 -0.8125 -0.40625q-0.46875 0 -0.78125 0.390625q-0.3125 0.375 -0.3125 1.1875zm6.6835938 1.5625q-0.390625 0.328125 -0.75 0.46875q-0.359375 0.140625 -0.78125 0.140625q-0.671875 0 -1.046875 -0.328125q-0.359375 -0.34375 -0.359375 -0.859375q0 -0.3125 0.125 -0.5625q0.140625 -0.25 0.359375 -0.390625q0.234375 -0.15625 0.515625 -0.234375q0.203125 -0.0625 0.625 -0.109375q0.859375 -0.109375 1.25 -0.25q0.015625 -0.140625 0.015625 -0.171875q0 -0.4375 -0.203125 -0.609375q-0.265625 -0.234375 -0.796875 -0.234375q-0.5 0 -0.734375 0.171875q-0.234375 0.171875 -0.359375 0.609375l-0.6875 -0.09375q0.09375 -0.4375 0.3125 -0.703125q0.21875 -0.28125 0.625 -0.421875q0.40625 -0.15625 0.9375 -0.15625q0.53125 0 0.859375 0.125q0.34375 0.125 0.5 0.328125q0.15625 0.1875 0.21875 0.46875q0.03125 0.1875 0.03125 0.65625l0 0.9375q0 0.96875 0.046875 1.234375q0.046875 0.265625 0.171875 0.5l-0.734375 0q-0.109375 -0.21875 -0.140625 -0.515625zm-0.0625 -1.5625q-0.375 0.15625 -1.140625 0.265625q-0.4375 0.0625 -0.625 0.140625q-0.171875 0.078125 -0.265625 0.234375q-0.09375 0.140625 -0.09375 0.328125q0 0.28125 0.203125 0.46875q0.21875 0.1875 0.625 0.1875q0.40625 0 0.71875 -0.171875q0.328125 -0.1875 0.46875 -0.5q0.109375 -0.234375 0.109375 -0.703125l0 -0.25zm3.3398438 1.453125l0.109375 0.609375q-0.296875 0.078125 -0.53125 0.078125q-0.390625 0 -0.609375 -0.125q-0.203125 -0.125 -0.296875 -0.3125q-0.078125 -0.203125 -0.078125 -0.84375l0 -2.390625l-0.515625 0l0 -0.546875l0.515625 0l0 -1.015625l0.703125 -0.421875l0 1.4375l0.703125 0l0 0.546875l-0.703125 0l0 2.4375q0 0.296875 0.03125 0.390625q0.046875 0.078125 0.125 0.125q0.078125 0.046875 0.234375 0.046875q0.125 0 0.3125 -0.015625zm3.3945312 0.109375q-0.390625 0.328125 -0.75 0.46875q-0.359375 0.140625 -0.78125 0.140625q-0.671875 0 -1.046875 -0.328125q-0.359375 -0.34375 -0.359375 -0.859375q0 -0.3125 0.125 -0.5625q0.140625 -0.25 0.359375 -0.390625q0.234375 -0.15625 0.515625 -0.234375q0.203125 -0.0625 0.625 -0.109375q0.859375 -0.109375 1.25 -0.25q0.015625 -0.140625 0.015625 -0.171875q0 -0.4375 -0.203125 -0.609375q-0.265625 -0.234375 -0.796875 -0.234375q-0.5 0 -0.734375 0.171875q-0.234375 0.171875 -0.359375 0.609375l-0.6875 -0.09375q0.09375 -0.4375 0.3125 -0.703125q0.21875 -0.28125 0.625 -0.421875q0.40625 -0.15625 0.9375 -0.15625q0.53125 0 0.859375 0.125q0.34375 0.125 0.5 0.328125q0.15625 0.1875 0.21875 0.46875q0.03125 0.1875 0.03125 0.65625l0 0.9375q0 0.96875 0.046875 1.234375q0.046875 0.265625 0.171875 0.5l-0.734375 0q-0.109375 -0.21875 -0.140625 -0.515625zm-0.0625 -1.5625q-0.375 0.15625 -1.140625 0.265625q-0.4375 0.0625 -0.625 0.140625q-0.171875 0.078125 -0.265625 0.234375q-0.09375 0.140625 -0.09375 0.328125q0 0.28125 0.203125 0.46875q0.21875 0.1875 0.625 0.1875q0.40625 0 0.71875 -0.171875q0.328125 -0.1875 0.46875 -0.5q0.109375 -0.234375 0.109375 -0.703125l0 -0.25z" fill-rule="nonzero"></path><path fill="#000000" d="m73.90671 86.104294l0 -0.8125l0.8125 0l0 0.8125l-0.8125 0zm0 3.34375l0 -0.796875l0.8125 0l0 0.796875l-0.8125 0z" fill-rule="nonzero"></path><path fill="#000000" d="m40.36374 101.041794l0 -5.75l0.640625 0l0 0.546875q0.21875 -0.3125 0.5 -0.46875q0.296875 -0.171875 0.703125 -0.171875q0.53125 0 0.9375 0.28125q0.40625 0.265625 0.609375 0.765625q0.203125 0.5 0.203125 1.09375q0 0.640625 -0.234375 1.15625q-0.21875 0.5 -0.65625 0.78125q-0.4375 0.265625 -0.90625 0.265625q-0.359375 0 -0.640625 -0.140625q-0.28125 -0.15625 -0.453125 -0.390625l0 2.03125l-0.703125 0zm0.640625 -3.640625q0 0.796875 0.3125 1.1875q0.328125 0.375 0.796875 0.375q0.46875 0 0.796875 -0.390625q0.328125 -0.40625 0.328125 -1.234375q0 -0.796875 -0.328125 -1.1875q-0.3125 -0.390625 -0.765625 -0.390625q-0.453125 0 -0.796875 0.421875q-0.34375 0.40625 -0.34375 1.21875zm6.5117188 0.53125l0.6875 0.078125q-0.109375 0.71875 -0.578125 1.125q-0.46875 0.40625 -1.140625 0.40625q-0.859375 0 -1.375 -0.546875q-0.515625 -0.5625 -0.515625 -1.609375q0 -0.671875 0.21875 -1.171875q0.234375 -0.5 0.6875 -0.75q0.453125 -0.265625 0.984375 -0.265625q0.671875 0 1.09375 0.34375q0.4375 0.34375 0.5625 0.96875l-0.6875 0.109375q-0.09375 -0.421875 -0.34375 -0.625q-0.25 -0.21875 -0.59375 -0.21875q-0.53125 0 -0.875 0.390625q-0.328125 0.375 -0.328125 1.203125q0 0.828125 0.3125 1.21875q0.328125 0.375 0.84375 0.375q0.421875 0 0.6875 -0.25q0.28125 -0.265625 0.359375 -0.78125zm1.28125 1.515625l0 -5.734375l0.703125 0l0 5.734375l-0.703125 0zm1.1367188 1.59375l0 -0.515625l4.671875 0l0 0.515625l-4.671875 0zm5.1054688 -6.515625l0 -0.8125l0.703125 0l0 0.8125l-0.703125 0zm0 4.921875l0 -4.15625l0.703125 0l0 4.15625l-0.703125 0zm4.4804688 -1.515625l0.6875 0.078125q-0.109375 0.71875 -0.578125 1.125q-0.46875 0.40625 -1.140625 0.40625q-0.859375 0 -1.375 -0.546875q-0.515625 -0.5625 -0.515625 -1.609375q0 -0.671875 0.21875 -1.171875q0.234375 -0.5 0.6875 -0.75q0.453125 -0.265625 0.984375 -0.265625q0.671875 0 1.09375 0.34375q0.4375 0.34375 0.5625 0.96875l-0.6875 0.109375q-0.09375 -0.421875 -0.34375 -0.625q-0.25 -0.21875 -0.59375 -0.21875q-0.53125 0 -0.875 0.390625q-0.328125 0.375 -0.328125 1.203125q0 0.828125 0.3125 1.21875q0.328125 0.375 0.84375 0.375q0.421875 0 0.6875 -0.25q0.28125 -0.265625 0.359375 -0.78125zm1.296875 3.109375l0 -5.75l0.640625 0l0 0.546875q0.21875 -0.3125 0.5 -0.46875q0.296875 -0.171875 0.703125 -0.171875q0.53125 0 0.9375 0.28125q0.40625 0.265625 0.609375 0.765625q0.203125 0.5 0.203125 1.09375q0 0.640625 -0.234375 1.15625q-0.21875 0.5 -0.65625 0.78125q-0.4375 0.265625 -0.90625 0.265625q-0.359375 0 -0.640625 -0.140625q-0.28125 -0.15625 -0.453125 -0.390625l0 2.03125l-0.703125 0zm0.640625 -3.640625q0 0.796875 0.3125 1.1875q0.328125 0.375 0.796875 0.375q0.46875 0 0.796875 -0.390625q0.328125 -0.40625 0.328125 -1.234375q0 -0.796875 -0.328125 -1.1875q-0.3125 -0.390625 -0.765625 -0.390625q-0.453125 0 -0.796875 0.421875q-0.34375 0.40625 -0.34375 1.21875z" fill-rule="nonzero"></path><path fill="#eeeeee" d="m35.83249 113.762215l163.22835 0l0 31.543312l-163.22835 0z" fill-rule="evenodd"></path><path stroke="#595959" stroke-width="1.0" stroke-linejoin="round" stroke-linecap="butt" d="m35.83249 113.762215l163.22835 0l0 31.543312l-163.22835 0z" fill-rule="evenodd"></path><path fill="#0097a7" d="m40.42624 126.71387l0 -5.734375l1.140625 0l1.359375 4.0625q0.1875 0.5625 0.265625 0.84375q0.109375 -0.3125 0.3125 -0.921875l1.375 -3.984375l1.015625 0l0 5.734375l-0.734375 0l0 -4.796875l-1.65625 4.796875l-0.6875 0l-1.65625 -4.875l0 4.875l-0.734375 0zm9.4453125 -1.34375l0.71875 0.09375q-0.171875 0.640625 -0.640625 1.0q-0.453125 0.34375 -1.1875 0.34375q-0.90625 0 -1.4375 -0.5625q-0.53125 -0.5625 -0.53125 -1.578125q0 -1.046875 0.53125 -1.625q0.546875 -0.578125 1.40625 -0.578125q0.828125 0 1.359375 0.578125q0.53125 0.5625 0.53125 1.59375q0 0.0625 -0.015625 0.1875l-3.09375 0q0.046875 0.671875 0.390625 1.046875q0.34375 0.359375 0.875 0.359375q0.375 0 0.640625 -0.203125q0.28125 -0.203125 0.453125 -0.65625zm-2.3125 -1.125l2.3125 0q-0.046875 -0.53125 -0.265625 -0.796875q-0.328125 -0.40625 -0.875 -0.40625q-0.484375 0 -0.8125 0.328125q-0.328125 0.328125 -0.359375 0.875zm5.4492188 1.84375l0.109375 0.609375q-0.296875 0.078125 -0.53125 0.078125q-0.390625 0 -0.609375 -0.125q-0.203125 -0.125 -0.296875 -0.3125q-0.078125 -0.203125 -0.078125 -0.84375l0 -2.390625l-0.515625 0l0 -0.546875l0.515625 0l0 -1.015625l0.703125 -0.421875l0 1.4375l0.703125 0l0 0.546875l-0.703125 0l0 2.4375q0 0.296875 0.03125 0.390625q0.046875 0.078125 0.125 0.125q0.078125 0.046875 0.234375 0.046875q0.125 0 0.3125 -0.015625zm3.3945312 0.109375q-0.390625 0.328125 -0.75 0.46875q-0.359375 0.140625 -0.78125 0.140625q-0.671875 0 -1.046875 -0.328125q-0.359375 -0.34375 -0.359375 -0.859375q0 -0.3125 0.125 -0.5625q0.140625 -0.25 0.359375 -0.390625q0.234375 -0.15625 0.515625 -0.234375q0.203125 -0.0625 0.625 -0.109375q0.859375 -0.109375 1.25 -0.25q0.015625 -0.140625 0.015625 -0.171875q0 -0.4375 -0.203125 -0.609375q-0.265625 -0.234375 -0.796875 -0.234375q-0.5 0 -0.734375 0.171875q-0.234375 0.171875 -0.359375 0.609375l-0.6875 -0.09375q0.09375 -0.4375 0.3125 -0.703125q0.21875 -0.28125 0.625 -0.421875q0.40625 -0.15625 0.9375 -0.15625q0.53125 0 0.859375 0.125q0.34375 0.125 0.5 0.328125q0.15625 0.1875 0.21875 0.46875q0.03125 0.1875 0.03125 0.65625l0 0.9375q0 0.96875 0.046875 1.234375q0.046875 0.265625 0.171875 0.5l-0.734375 0q-0.109375 -0.21875 -0.140625 -0.515625zm-0.0625 -1.5625q-0.375 0.15625 -1.140625 0.265625q-0.4375 0.0625 -0.625 0.140625q-0.171875 0.078125 -0.265625 0.234375q-0.09375 0.140625 -0.09375 0.328125q0 0.28125 0.203125 0.46875q0.21875 0.1875 0.625 0.1875q0.40625 0 0.71875 -0.171875q0.328125 -0.1875 0.46875 -0.5q0.109375 -0.234375 0.109375 -0.703125l0 -0.25zm4.4960938 2.078125l0 -0.53125q-0.390625 0.625 -1.15625 0.625q-0.5 0 -0.921875 -0.265625q-0.40625 -0.28125 -0.640625 -0.765625q-0.21875 -0.5 -0.21875 -1.140625q0 -0.609375 0.203125 -1.109375q0.203125 -0.515625 0.609375 -0.78125q0.421875 -0.28125 0.9375 -0.28125q0.375 0 0.65625 0.171875q0.296875 0.15625 0.484375 0.40625l0 -2.0625l0.703125 0l0 5.734375l-0.65625 0zm-2.21875 -2.078125q0 0.796875 0.328125 1.203125q0.34375 0.390625 0.796875 0.390625q0.46875 0 0.78125 -0.375q0.328125 -0.375 0.328125 -1.15625q0 -0.84375 -0.328125 -1.234375q-0.328125 -0.40625 -0.8125 -0.40625q-0.46875 0 -0.78125 0.390625q-0.3125 0.375 -0.3125 1.1875zm6.6835938 1.5625q-0.390625 0.328125 -0.75 0.46875q-0.359375 0.140625 -0.78125 0.140625q-0.671875 0 -1.046875 -0.328125q-0.359375 -0.34375 -0.359375 -0.859375q0 -0.3125 0.125 -0.5625q0.140625 -0.25 0.359375 -0.390625q0.234375 -0.15625 0.515625 -0.234375q0.203125 -0.0625 0.625 -0.109375q0.859375 -0.109375 1.25 -0.25q0.015625 -0.140625 0.015625 -0.171875q0 -0.4375 -0.203125 -0.609375q-0.265625 -0.234375 -0.796875 -0.234375q-0.5 0 -0.734375 0.171875q-0.234375 0.171875 -0.359375 0.609375l-0.6875 -0.09375q0.09375 -0.4375 0.3125 -0.703125q0.21875 -0.28125 0.625 -0.421875q0.40625 -0.15625 0.9375 -0.15625q0.53125 0 0.859375 0.125q0.34375 0.125 0.5 0.328125q0.15625 0.1875 0.21875 0.46875q0.03125 0.1875 0.03125 0.65625l0 0.9375q0 0.96875 0.046875 1.234375q0.046875 0.265625 0.171875 0.5l-0.734375 0q-0.109375 -0.21875 -0.140625 -0.515625zm-0.0625 -1.5625q-0.375 0.15625 -1.140625 0.265625q-0.4375 0.0625 -0.625 0.140625q-0.171875 0.078125 -0.265625 0.234375q-0.09375 0.140625 -0.09375 0.328125q0 0.28125 0.203125 0.46875q0.21875 0.1875 0.625 0.1875q0.40625 0 0.71875 -0.171875q0.328125 -0.1875 0.46875 -0.5q0.109375 -0.234375 0.109375 -0.703125l0 -0.25zm3.3398438 1.453125l0.109375 0.609375q-0.296875 0.078125 -0.53125 0.078125q-0.390625 0 -0.609375 -0.125q-0.203125 -0.125 -0.296875 -0.3125q-0.078125 -0.203125 -0.078125 -0.84375l0 -2.390625l-0.515625 0l0 -0.546875l0.515625 0l0 -1.015625l0.703125 -0.421875l0 1.4375l0.703125 0l0 0.546875l-0.703125 0l0 2.4375q0 0.296875 0.03125 0.390625q0.046875 0.078125 0.125 0.125q0.078125 0.046875 0.234375 0.046875q0.125 0 0.3125 -0.015625zm3.3945312 0.109375q-0.390625 0.328125 -0.75 0.46875q-0.359375 0.140625 -0.78125 0.140625q-0.671875 0 -1.046875 -0.328125q-0.359375 -0.34375 -0.359375 -0.859375q0 -0.3125 0.125 -0.5625q0.140625 -0.25 0.359375 -0.390625q0.234375 -0.15625 0.515625 -0.234375q0.203125 -0.0625 0.625 -0.109375q0.859375 -0.109375 1.25 -0.25q0.015625 -0.140625 0.015625 -0.171875q0 -0.4375 -0.203125 -0.609375q-0.265625 -0.234375 -0.796875 -0.234375q-0.5 0 -0.734375 0.171875q-0.234375 0.171875 -0.359375 0.609375l-0.6875 -0.09375q0.09375 -0.4375 0.3125 -0.703125q0.21875 -0.28125 0.625 -0.421875q0.40625 -0.15625 0.9375 -0.15625q0.53125 0 0.859375 0.125q0.34375 0.125 0.5 0.328125q0.15625 0.1875 0.21875 0.46875q0.03125 0.1875 0.03125 0.65625l0 0.9375q0 0.96875 0.046875 1.234375q0.046875 0.265625 0.171875 0.5l-0.734375 0q-0.109375 -0.21875 -0.140625 -0.515625zm-0.0625 -1.5625q-0.375 0.15625 -1.140625 0.265625q-0.4375 0.0625 -0.625 0.140625q-0.171875 0.078125 -0.265625 0.234375q-0.09375 0.140625 -0.09375 0.328125q0 0.28125 0.203125 0.46875q0.21875 0.1875 0.625 0.1875q0.40625 0 0.71875 -0.171875q0.328125 -0.1875 0.46875 -0.5q0.109375 -0.234375 0.109375 -0.703125l0 -0.25z" fill-rule="nonzero"></path><path fill="#000000" d="m73.90671 123.37012l0 -0.8125l0.8125 0l0 0.8125l-0.8125 0zm0 3.34375l0 -0.796875l0.8125 0l0 0.796875l-0.8125 0z" fill-rule="nonzero"></path><path fill="#000000" d="m40.36374 138.30762l0 -5.75l0.640625 0l0 0.546875q0.21875 -0.3125 0.5 -0.46875q0.296875 -0.171875 0.703125 -0.171875q0.53125 0 0.9375 0.28125q0.40625 0.265625 0.609375 0.765625q0.203125 0.5 0.203125 1.09375q0 0.640625 -0.234375 1.15625q-0.21875 0.5 -0.65625 0.78125q-0.4375 0.265625 -0.90625 0.265625q-0.359375 0 -0.640625 -0.140625q-0.28125 -0.15625 -0.453125 -0.390625l0 2.03125l-0.703125 0zm0.640625 -3.640625q0 0.796875 0.3125 1.1875q0.328125 0.375 0.796875 0.375q0.46875 0 0.796875 -0.390625q0.328125 -0.40625 0.328125 -1.234375q0 -0.796875 -0.328125 -1.1875q-0.3125 -0.390625 -0.765625 -0.390625q-0.453125 0 -0.796875 0.421875q-0.34375 0.40625 -0.34375 1.21875zm6.5117188 0.53125l0.6875 0.078125q-0.109375 0.71875 -0.578125 1.125q-0.46875 0.40625 -1.140625 0.40625q-0.859375 0 -1.375 -0.546875q-0.515625 -0.5625 -0.515625 -1.609375q0 -0.671875 0.21875 -1.171875q0.234375 -0.5 0.6875 -0.75q0.453125 -0.265625 0.984375 -0.265625q0.671875 0 1.09375 0.34375q0.4375 0.34375 0.5625 0.96875l-0.6875 0.109375q-0.09375 -0.421875 -0.34375 -0.625q-0.25 -0.21875 -0.59375 -0.21875q-0.53125 0 -0.875 0.390625q-0.328125 0.375 -0.328125 1.203125q0 0.828125 0.3125 1.21875q0.328125 0.375 0.84375 0.375q0.421875 0 0.6875 -0.25q0.28125 -0.265625 0.359375 -0.78125zm1.28125 1.515625l0 -5.734375l0.703125 0l0 5.734375l-0.703125 0zm1.1367188 1.59375l0 -0.515625l4.671875 0l0 0.515625l-4.671875 0zm5.1054688 -1.59375l0 -4.15625l0.625 0l0 0.59375q0.46875 -0.6875 1.328125 -0.6875q0.375 0 0.6875 0.140625q0.3125 0.140625 0.46875 0.359375q0.15625 0.21875 0.21875 0.515625q0.046875 0.1875 0.046875 0.6875l0 2.546875l-0.703125 0l0 -2.53125q0 -0.421875 -0.09375 -0.625q-0.078125 -0.21875 -0.296875 -0.34375q-0.203125 -0.140625 -0.484375 -0.140625q-0.4375 0 -0.765625 0.296875q-0.328125 0.28125 -0.328125 1.078125l0 2.265625l-0.703125 0zm4.1835938 -2.078125q0 -1.15625 0.640625 -1.703125q0.53125 -0.46875 1.3125 -0.46875q0.84375 0 1.390625 0.5625q0.546875 0.5625 0.546875 1.546875q0 0.8125 -0.25 1.265625q-0.234375 0.453125 -0.703125 0.71875q-0.453125 0.25 -0.984375 0.25q-0.875 0 -1.421875 -0.5625q-0.53125 -0.5625 -0.53125 -1.609375zm0.71875 0q0 0.796875 0.34375 1.203125q0.359375 0.390625 0.890625 0.390625q0.515625 0 0.859375 -0.390625q0.359375 -0.40625 0.359375 -1.21875q0 -0.78125 -0.359375 -1.171875q-0.34375 -0.390625 -0.859375 -0.390625q-0.53125 0 -0.890625 0.390625q-0.34375 0.390625 -0.34375 1.1875zm3.9804688 2.078125l0 -4.15625l0.640625 0l0 0.640625q0.234375 -0.453125 0.4375 -0.59375q0.21875 -0.140625 0.453125 -0.140625q0.359375 0 0.734375 0.234375l-0.25 0.65625q-0.25 -0.15625 -0.515625 -0.15625q-0.234375 0 -0.421875 0.140625q-0.171875 0.140625 -0.25 0.375q-0.125 0.375 -0.125 0.828125l0 2.171875l-0.703125 0zm2.6796875 0l0 -4.15625l0.625 0l0 0.59375q0.203125 -0.3125 0.515625 -0.5q0.328125 -0.1875 0.75 -0.1875q0.453125 0 0.75 0.203125q0.296875 0.1875 0.421875 0.53125q0.484375 -0.734375 1.28125 -0.734375q0.609375 0 0.9375 0.34375q0.34375 0.34375 0.34375 1.0625l0 2.84375l-0.703125 0l0 -2.609375q0 -0.421875 -0.078125 -0.609375q-0.0625 -0.1875 -0.25 -0.296875q-0.171875 -0.125 -0.40625 -0.125q-0.4375 0 -0.734375 0.296875q-0.28125 0.296875 -0.28125 0.9375l0 2.40625l-0.703125 0l0 -2.703125q0 -0.46875 -0.171875 -0.703125q-0.171875 -0.234375 -0.5625 -0.234375q-0.296875 0 -0.5625 0.15625q-0.25 0.15625 -0.359375 0.46875q-0.109375 0.296875 -0.109375 0.859375l0 2.15625l-0.703125 0zm9.3671875 -0.515625q-0.390625 0.328125 -0.75 0.46875q-0.359375 0.140625 -0.78125 0.140625q-0.671875 0 -1.046875 -0.328125q-0.359375 -0.34375 -0.359375 -0.859375q0 -0.3125 0.125 -0.5625q0.140625 -0.25 0.359375 -0.390625q0.234375 -0.15625 0.515625 -0.234375q0.203125 -0.0625 0.625 -0.109375q0.859375 -0.109375 1.25 -0.25q0.015625 -0.140625 0.015625 -0.171875q0 -0.4375 -0.203125 -0.609375q-0.265625 -0.234375 -0.796875 -0.234375q-0.5 0 -0.734375 0.171875q-0.234375 0.171875 -0.359375 0.609375l-0.6875 -0.09375q0.09375 -0.4375 0.3125 -0.703125q0.21875 -0.28125 0.625 -0.421875q0.40625 -0.15625 0.9375 -0.15625q0.53125 0 0.859375 0.125q0.34375 0.125 0.5 0.328125q0.15625 0.1875 0.21875 0.46875q0.03125 0.1875 0.03125 0.65625l0 0.9375q0 0.96875 0.046875 1.234375q0.046875 0.265625 0.171875 0.5l-0.734375 0q-0.109375 -0.21875 -0.140625 -0.515625zm-0.0625 -1.5625q-0.375 0.15625 -1.140625 0.265625q-0.4375 0.0625 -0.625 0.140625q-0.171875 0.078125 -0.265625 0.234375q-0.09375 0.140625 -0.09375 0.328125q0 0.28125 0.203125 0.46875q0.21875 0.1875 0.625 0.1875q0.40625 0 0.71875 -0.171875q0.328125 -0.1875 0.46875 -0.5q0.109375 -0.234375 0.109375 -0.703125l0 -0.25zm1.7929688 2.078125l0 -5.734375l0.703125 0l0 5.734375l-0.703125 0zm4.6367188 -1.34375l0.71875 0.09375q-0.171875 0.640625 -0.640625 1.0q-0.453125 0.34375 -1.1875 0.34375q-0.90625 0 -1.4375 -0.5625q-0.53125 -0.5625 -0.53125 -1.578125q0 -1.046875 0.53125 -1.625q0.546875 -0.578125 1.40625 -0.578125q0.828125 0 1.359375 0.578125q0.53125 0.5625 0.53125 1.59375q0 0.0625 -0.015625 0.1875l-3.09375 0q0.046875 0.671875 0.390625 1.046875q0.34375 0.359375 0.875 0.359375q0.375 0 0.640625 -0.203125q0.28125 -0.203125 0.453125 -0.65625zm-2.3125 -1.125l2.3125 0q-0.046875 -0.53125 -0.265625 -0.796875q-0.328125 -0.40625 -0.875 -0.40625q-0.484375 0 -0.8125 0.328125q-0.328125 0.328125 -0.359375 0.875zm3.6367188 1.234375l0.6875 -0.109375q0.0625 0.40625 0.328125 0.640625q0.265625 0.21875 0.75 0.21875q0.484375 0 0.71875 -0.1875q0.234375 -0.203125 0.234375 -0.46875q0 -0.25 -0.203125 -0.375q-0.140625 -0.09375 -0.71875 -0.25q-0.78125 -0.1875 -1.078125 -0.328125q-0.296875 -0.140625 -0.453125 -0.390625q-0.15625 -0.265625 -0.15625 -0.5625q0 -0.28125 0.125 -0.515625q0.140625 -0.234375 0.359375 -0.390625q0.15625 -0.125 0.4375 -0.203125q0.28125 -0.09375 0.609375 -0.09375q0.484375 0 0.859375 0.140625q0.375 0.140625 0.546875 0.390625q0.171875 0.234375 0.234375 0.640625l-0.6875 0.09375q-0.046875 -0.328125 -0.265625 -0.5q-0.21875 -0.1875 -0.640625 -0.1875q-0.484375 0 -0.6875 0.171875q-0.203125 0.15625 -0.203125 0.375q0 0.125 0.078125 0.234375q0.09375 0.125 0.28125 0.1875q0.09375 0.046875 0.609375 0.1875q0.75 0.203125 1.046875 0.328125q0.296875 0.125 0.453125 0.375q0.171875 0.234375 0.171875 0.59375q0 0.34375 -0.203125 0.65625q-0.203125 0.3125 -0.59375 0.484375q-0.375 0.171875 -0.875 0.171875q-0.796875 0 -1.234375 -0.328125q-0.421875 -0.34375 -0.53125 -1.0zm5.8125 0.609375l0.109375 0.609375q-0.296875 0.078125 -0.53125 0.078125q-0.390625 0 -0.609375 -0.125q-0.203125 -0.125 -0.296875 -0.3125q-0.078125 -0.203125 -0.078125 -0.84375l0 -2.390625l-0.515625 0l0 -0.546875l0.515625 0l0 -1.015625l0.703125 -0.421875l0 1.4375l0.703125 0l0 0.546875l-0.703125 0l0 2.4375q0 0.296875 0.03125 0.390625q0.046875 0.078125 0.125 0.125q0.078125 0.046875 0.234375 0.046875q0.125 0 0.3125 -0.015625zm0.69140625 -4.296875l0 -0.8125l0.703125 0l0 0.8125l-0.703125 0zm0 4.921875l0 -4.15625l0.703125 0l0 4.15625l-0.703125 0zm1.7773438 0l0 -4.15625l0.625 0l0 0.59375q0.203125 -0.3125 0.515625 -0.5q0.328125 -0.1875 0.75 -0.1875q0.453125 0 0.75 0.203125q0.296875 0.1875 0.421875 0.53125q0.484375 -0.734375 1.28125 -0.734375q0.609375 0 0.9375 0.34375q0.34375 0.34375 0.34375 1.0625l0 2.84375l-0.703125 0l0 -2.609375q0 -0.421875 -0.078125 -0.609375q-0.0625 -0.1875 -0.25 -0.296875q-0.171875 -0.125 -0.40625 -0.125q-0.4375 0 -0.734375 0.296875q-0.28125 0.296875 -0.28125 0.9375l0 2.40625l-0.703125 0l0 -2.703125q0 -0.46875 -0.171875 -0.703125q-0.171875 -0.234375 -0.5625 -0.234375q-0.296875 0 -0.5625 0.15625q-0.25 0.15625 -0.359375 0.46875q-0.109375 0.296875 -0.109375 0.859375l0 2.15625l-0.703125 0zm9.3671875 -0.515625q-0.390625 0.328125 -0.75 0.46875q-0.359375 0.140625 -0.78125 0.140625q-0.671875 0 -1.046875 -0.328125q-0.359375 -0.34375 -0.359375 -0.859375q0 -0.3125 0.125 -0.5625q0.140625 -0.25 0.359375 -0.390625q0.234375 -0.15625 0.515625 -0.234375q0.203125 -0.0625 0.625 -0.109375q0.859375 -0.109375 1.25 -0.25q0.015625 -0.140625 0.015625 -0.171875q0 -0.4375 -0.203125 -0.609375q-0.265625 -0.234375 -0.796875 -0.234375q-0.5 0 -0.734375 0.171875q-0.234375 0.171875 -0.359375 0.609375l-0.6875 -0.09375q0.09375 -0.4375 0.3125 -0.703125q0.21875 -0.28125 0.625 -0.421875q0.40625 -0.15625 0.9375 -0.15625q0.53125 0 0.859375 0.125q0.34375 0.125 0.5 0.328125q0.15625 0.1875 0.21875 0.46875q0.03125 0.1875 0.03125 0.65625l0 0.9375q0 0.96875 0.046875 1.234375q0.046875 0.265625 0.171875 0.5l-0.734375 0q-0.109375 -0.21875 -0.140625 -0.515625zm-0.0625 -1.5625q-0.375 0.15625 -1.140625 0.265625q-0.4375 0.0625 -0.625 0.140625q-0.171875 0.078125 -0.265625 0.234375q-0.09375 0.140625 -0.09375 0.328125q0 0.28125 0.203125 0.46875q0.21875 0.1875 0.625 0.1875q0.40625 0 0.71875 -0.171875q0.328125 -0.1875 0.46875 -0.5q0.109375 -0.234375 0.109375 -0.703125l0 -0.25zm3.3398438 1.453125l0.109375 0.609375q-0.296875 0.078125 -0.53125 0.078125q-0.390625 0 -0.609375 -0.125q-0.203125 -0.125 -0.296875 -0.3125q-0.078125 -0.203125 -0.078125 -0.84375l0 -2.390625l-0.515625 0l0 -0.546875l0.515625 0l0 -1.015625l0.703125 -0.421875l0 1.4375l0.703125 0l0 0.546875l-0.703125 0l0 2.4375q0 0.296875 0.03125 0.390625q0.046875 0.078125 0.125 0.125q0.078125 0.046875 0.234375 0.046875q0.125 0 0.3125 -0.015625zm0.69140625 -4.296875l0 -0.8125l0.703125 0l0 0.8125l-0.703125 0zm0 4.921875l0 -4.15625l0.703125 0l0 4.15625l-0.703125 0zm1.5117188 -2.078125q0 -1.15625 0.640625 -1.703125q0.53125 -0.46875 1.3125 -0.46875q0.84375 0 1.390625 0.5625q0.546875 0.5625 0.546875 1.546875q0 0.8125 -0.25 1.265625q-0.234375 0.453125 -0.703125 0.71875q-0.453125 0.25 -0.984375 0.25q-0.875 0 -1.421875 -0.5625q-0.53125 -0.5625 -0.53125 -1.609375zm0.71875 0q0 0.796875 0.34375 1.203125q0.359375 0.390625 0.890625 0.390625q0.515625 0 0.859375 -0.390625q0.359375 -0.40625 0.359375 -1.21875q0 -0.78125 -0.359375 -1.171875q-0.34375 -0.390625 -0.859375 -0.390625q-0.53125 0 -0.890625 0.390625q-0.34375 0.390625 -0.34375 1.1875zm3.9960938 2.078125l0 -4.15625l0.625 0l0 0.59375q0.46875 -0.6875 1.328125 -0.6875q0.375 0 0.6875 0.140625q0.3125 0.140625 0.46875 0.359375q0.15625 0.21875 0.21875 0.515625q0.046875 0.1875 0.046875 0.6875l0 2.546875l-0.703125 0l0 -2.53125q0 -0.421875 -0.09375 -0.625q-0.078125 -0.21875 -0.296875 -0.34375q-0.203125 -0.140625 -0.484375 -0.140625q-0.4375 0 -0.765625 0.296875q-0.328125 0.28125 -0.328125 1.078125l0 2.265625l-0.703125 0z" fill-rule="nonzero"></path><path fill="#434343" d="m35.83249 7.222073l0 0c0 -2.9035392 2.3537827 -5.257323 5.2573204 -5.257323l66.85544 0c1.3943253 0 2.7315521 0.5538949 3.7174911 1.5398341c0.985939 0.9859395 1.5398331 2.3231602 1.5398331 3.7174888l0 21.028662c0 2.9035397 -2.3537827 5.2573223 -5.257324 5.2573223l-66.85544 0l0 0c-2.9035378 0 -5.2573204 -2.3537827 -5.2573204 -5.2573223z" fill-rule="evenodd"></path><path stroke="#595959" stroke-width="1.0" stroke-linejoin="round" stroke-linecap="butt" d="m35.83249 7.222073l0 0c0 -2.9035392 2.3537827 -5.257323 5.2573204 -5.257323l66.85544 0c1.3943253 0 2.7315521 0.5538949 3.7174911 1.5398341c0.985939 0.9859395 1.5398331 2.3231602 1.5398331 3.7174888l0 21.028662c0 2.9035397 -2.3537827 5.2573223 -5.257324 5.2573223l-66.85544 0l0 0c-2.9035378 0 -5.2573204 -2.3537827 -5.2573204 -5.2573223z" fill-rule="evenodd"></path><path fill="#ffab40" d="m56.81261 21.196404l0 -6.437501l2.859375 0q0.859375 0 1.3125 0.171875q0.453125 0.171875 0.71875 0.609375q0.265625 0.4375 0.265625 0.96875095q0 0.6875 -0.453125 1.15625q-0.4375 0.46875 -1.359375 0.59375q0.328125 0.171875 0.515625 0.328125q0.375 0.34375 0.703125 0.859375l1.125 1.75l-1.078125 0l-0.859375 -1.34375q-0.359375 -0.578125 -0.609375 -0.875q-0.234375 -0.3125 -0.4375 -0.4375q-0.1875 -0.125 -0.375 -0.171875q-0.15625 -0.03125 -0.484375 -0.03125l-0.984375 0l0 2.859375l-0.859375 0zm0.859375 -3.59375l1.828125 0q0.59375 0 0.921875 -0.125q0.328125 -0.125 0.5 -0.390625q0.171875 -0.265625 0.171875 -0.578125q0 -0.453125 -0.34375 -0.75000095q-0.328125 -0.296875 -1.046875 -0.296875l-2.03125 0l0 2.140626zm8.814602 3.015625q-0.4375 0.375 -0.84375 0.53125q-0.40625 0.15625 -0.875 0.15625q-0.765625 0 -1.1874962 -0.375q-0.40625 -0.375 -0.40625 -0.96875q0 -0.34375 0.15625 -0.625q0.15625 -0.28125 0.40625 -0.453125q0.25 -0.171875 0.5624962 -0.265625q0.234375 -0.046875 0.703125 -0.109375q0.96875 -0.109375 1.421875 -0.28125q0 -0.15625 0 -0.203125q0 -0.484375 -0.21875 -0.671875q-0.3125 -0.28125 -0.90625 -0.28125q-0.5625 0 -0.828125 0.203125q-0.265625 0.1875 -0.390625 0.6875l-0.7656212 -0.09375q0.09375 -0.5 0.328125 -0.796875q0.25 -0.3125 0.7031212 -0.46875q0.46875 -0.171875 1.0625 -0.171875q0.609375 0 0.96875 0.140625q0.375 0.140625 0.546875 0.359375q0.1875 0.203125 0.25 0.53125q0.046875 0.203125 0.046875 0.71875l0 1.0625q0 1.09375 0.046875 1.390625q0.046875 0.296875 0.203125 0.5625l-0.828125 0q-0.125 -0.25 -0.15625 -0.578125zm-0.0625 -1.765625q-0.4375 0.171875 -1.296875 0.296875q-0.484375 0.078125 -0.6875 0.171875q-0.203125 0.078125 -0.3125 0.25q-0.109375 0.171875 -0.109375 0.375q0 0.3125 0.234375 0.53125q0.234375 0.203125 0.703125 0.203125q0.453125 0 0.8125 -0.203125q0.359375 -0.203125 0.53125 -0.546875q0.125 -0.265625 0.125 -0.78125l0 -0.296875zm3.0628662 2.34375l-1.421875 -4.671875l0.8125 0l0.75 2.703125l0.265625 1.0q0.015625 -0.078125 0.25 -0.96875l0.734375 -2.734375l0.8125 0l0.703125 2.71875l0.234375 0.890625l0.265625 -0.90625l0.796875 -2.703125l0.765625 0l-1.453125 4.671875l-0.8125 0l-0.75 -2.796875l-0.1875 -0.796875l-0.9375 3.59375l-0.828125 0zm8.908356 0l0 -0.59375q-0.453125 0.703125 -1.3125 0.703125q-0.546875 0 -1.015625 -0.3125q-0.46875 -0.3125 -0.734375 -0.859375q-0.25 -0.546875 -0.25 -1.265625q0 -0.703125 0.234375 -1.265625q0.234375 -0.578125 0.6875 -0.875q0.46875 -0.296875 1.046875 -0.296875q0.421875 0 0.75 0.171875q0.328125 0.171875 0.53125 0.46875l0 -2.312501l0.796875 0l0 6.437501l-0.734375 0zm-2.5 -2.328125q0 0.890625 0.375 1.34375q0.375 0.4375 0.890625 0.4375q0.515625 0 0.875 -0.421875q0.375 -0.421875 0.375 -1.296875q0 -0.953125 -0.375 -1.40625q-0.375 -0.453125 -0.90625 -0.453125q-0.53125 0 -0.890625 0.4375q-0.34375 0.4375 -0.34375 1.359375zm7.703491 1.75q-0.4375 0.375 -0.84375 0.53125q-0.40625 0.15625 -0.875 0.15625q-0.765625 0 -1.1875 -0.375q-0.40625 -0.375 -0.40625 -0.96875q0 -0.34375 0.15625 -0.625q0.15625 -0.28125 0.40625 -0.453125q0.25 -0.171875 0.5625 -0.265625q0.234375 -0.046875 0.703125 -0.109375q0.96875 -0.109375 1.421875 -0.28125q0 -0.15625 0 -0.203125q0 -0.484375 -0.21875 -0.671875q-0.3125 -0.28125 -0.90625 -0.28125q-0.5625 0 -0.828125 0.203125q-0.265625 0.1875 -0.390625 0.6875l-0.765625 -0.09375q0.09375 -0.5 0.328125 -0.796875q0.25 -0.3125 0.703125 -0.46875q0.46875 -0.171875 1.0625 -0.171875q0.609375 0 0.96875 0.140625q0.375 0.140625 0.546875 0.359375q0.1875 0.203125 0.25 0.53125q0.046875 0.203125 0.046875 0.71875l0 1.0625q0 1.09375 0.046875 1.390625q0.046875 0.296875 0.203125 0.5625l-0.828125 0q-0.125 -0.25 -0.15625 -0.578125zm-0.0625 -1.765625q-0.4375 0.171875 -1.296875 0.296875q-0.484375 0.078125 -0.6875 0.171875q-0.203125 0.078125 -0.3125 0.25q-0.109375 0.171875 -0.109375 0.375q0 0.3125 0.234375 0.53125q0.234375 0.203125 0.703125 0.203125q0.453125 0 0.8125 -0.203125q0.359375 -0.203125 0.53125 -0.546875q0.125 -0.265625 0.125 -0.78125l0 -0.296875zm3.9378662 1.640625l0.109375 0.6875q-0.34375 0.078125 -0.59375 0.078125q-0.4375 0 -0.671875 -0.140625q-0.234375 -0.140625 -0.34375 -0.359375q-0.09375 -0.21875 -0.09375 -0.921875l0 -2.6875l-0.578125 0l0 -0.625l0.578125 0l0 -1.156251l0.796875 -0.46875l0 1.625001l0.796875 0l0 0.625l-0.796875 0l0 2.71875q0 0.34375 0.03125 0.4375q0.046875 0.09375 0.140625 0.15625q0.09375 0.0625 0.265625 0.0625q0.140625 0 0.359375 -0.03125zm3.9041595 0.125q-0.4375 0.375 -0.84375 0.53125q-0.40625 0.15625 -0.875 0.15625q-0.765625 0 -1.1875 -0.375q-0.40625 -0.375 -0.40625 -0.96875q0 -0.34375 0.15625 -0.625q0.15625 -0.28125 0.40625 -0.453125q0.25 -0.171875 0.5625 -0.265625q0.234375 -0.046875 0.703125 -0.109375q0.96875 -0.109375 1.421875 -0.28125q0 -0.15625 0 -0.203125q0 -0.484375 -0.21875 -0.671875q-0.3125 -0.28125 -0.90625 -0.28125q-0.5625 0 -0.828125 0.203125q-0.265625 0.1875 -0.390625 0.6875l-0.765625 -0.09375q0.09375 -0.5 0.328125 -0.796875q0.25 -0.3125 0.703125 -0.46875q0.46875 -0.171875 1.0625 -0.171875q0.609375 0 0.96875 0.140625q0.375 0.140625 0.546875 0.359375q0.1875 0.203125 0.25 0.53125q0.046875 0.203125 0.046875 0.71875l0 1.0625q0 1.09375 0.046875 1.390625q0.046875 0.296875 0.203125 0.5625l-0.828125 0q-0.125 -0.25 -0.15625 -0.578125zm-0.0625 -1.765625q-0.4375 0.171875 -1.296875 0.296875q-0.484375 0.078125 -0.6875 0.171875q-0.203125 0.078125 -0.3125 0.25q-0.109375 0.171875 -0.109375 0.375q0 0.3125 0.234375 0.53125q0.234375 0.203125 0.703125 0.203125q0.453125 0 0.8125 -0.203125q0.359375 -0.203125 0.53125 -0.546875q0.125 -0.265625 0.125 -0.78125l0 -0.296875z" fill-rule="nonzero"></path><path fill="#434343" d="m121.684456 44.487896l0 0c0 -2.9035416 2.3537827 -5.257324 5.257324 -5.257324l66.85543 0c1.3943329 0 2.7315521 0.55389404 3.7174835 1.5398331c0.98594666 0.985939 1.5398407 2.323162 1.5398407 3.7174911l0 21.02866c0 2.9035416 -2.3537903 5.257324 -5.257324 5.257324l-66.85543 0l0 0c-2.9035416 0 -5.257324 -2.3537827 -5.257324 -5.257324z" fill-rule="evenodd"></path><path stroke="#595959" stroke-width="1.0" stroke-linejoin="round" stroke-linecap="butt" d="m121.684456 44.487896l0 0c0 -2.9035416 2.3537827 -5.257324 5.257324 -5.257324l66.85543 0c1.3943329 0 2.7315521 0.55389404 3.7174835 1.5398331c0.98594666 0.985939 1.5398407 2.323162 1.5398407 3.7174911l0 21.02866c0 2.9035416 -2.3537903 5.257324 -5.257324 5.257324l-66.85543 0l0 0c-2.9035416 0 -5.257324 -2.3537827 -5.257324 -5.257324z" fill-rule="evenodd"></path><path fill="#ffab40" d="m142.66458 58.462223l0 -6.4375l2.859375 0q0.859375 0 1.3125 0.171875q0.453125 0.171875 0.71875 0.609375q0.265625 0.4375 0.265625 0.96875q0 0.6875 -0.453125 1.15625q-0.4375 0.46875 -1.359375 0.59375q0.328125 0.171875 0.515625 0.328125q0.375 0.34375 0.703125 0.859375l1.125 1.75l-1.078125 0l-0.859375 -1.34375q-0.359375 -0.578125 -0.609375 -0.875q-0.234375 -0.3125 -0.4375 -0.4375q-0.1875 -0.125 -0.375 -0.171875q-0.15625 -0.03125 -0.484375 -0.03125l-0.984375 0l0 2.859375l-0.859375 0zm0.859375 -3.59375l1.828125 0q0.59375 0 0.921875 -0.125q0.328125 -0.125 0.5 -0.390625q0.171875 -0.265625 0.171875 -0.578125q0 -0.453125 -0.34375 -0.75q-0.328125 -0.296875 -1.046875 -0.296875l-2.03125 0l0 2.140625zm8.814606 3.015625q-0.4375 0.375 -0.84375 0.53125q-0.40625 0.15625 -0.875 0.15625q-0.765625 0 -1.1875 -0.375q-0.40625 -0.375 -0.40625 -0.96875q0 -0.34375 0.15625 -0.625q0.15625 -0.28125 0.40625 -0.453125q0.25 -0.171875 0.5625 -0.265625q0.234375 -0.046875 0.703125 -0.109375q0.96875 -0.109375 1.421875 -0.28125q0 -0.15625 0 -0.203125q0 -0.484375 -0.21875 -0.671875q-0.3125 -0.28125 -0.90625 -0.28125q-0.5625 0 -0.828125 0.203125q-0.265625 0.1875 -0.390625 0.6875l-0.765625 -0.09375q0.09375 -0.5 0.328125 -0.796875q0.25 -0.3125 0.703125 -0.46875q0.46875 -0.171875 1.0625 -0.171875q0.609375 0 0.96875 0.140625q0.375 0.140625 0.546875 0.359375q0.1875 0.203125 0.25 0.53125q0.046875 0.203125 0.046875 0.71875l0 1.0625q0 1.09375 0.046875 1.390625q0.046875 0.296875 0.203125 0.5625l-0.828125 0q-0.125 -0.25 -0.15625 -0.578125zm-0.0625 -1.765625q-0.4375 0.171875 -1.296875 0.296875q-0.484375 0.078125 -0.6875 0.171875q-0.203125 0.078125 -0.3125 0.25q-0.109375 0.171875 -0.109375 0.375q0 0.3125 0.234375 0.53125q0.234375 0.203125 0.703125 0.203125q0.453125 0 0.8125 -0.203125q0.359375 -0.203125 0.53125 -0.546875q0.125 -0.265625 0.125 -0.78125l0 -0.296875zm3.0628662 2.34375l-1.421875 -4.671875l0.8125 0l0.75 2.703125l0.265625 1.0q0.015625 -0.078125 0.25 -0.96875l0.734375 -2.734375l0.8125 0l0.703125 2.71875l0.234375 0.890625l0.265625 -0.90625l0.796875 -2.703125l0.765625 0l-1.453125 4.671875l-0.8125 0l-0.75 -2.796875l-0.1875 -0.796875l-0.9375 3.59375l-0.828125 0zm8.908356 0l0 -0.59375q-0.453125 0.703125 -1.3125 0.703125q-0.546875 0 -1.015625 -0.3125q-0.46875 -0.3125 -0.734375 -0.859375q-0.25 -0.546875 -0.25 -1.265625q0 -0.703125 0.234375 -1.265625q0.234375 -0.578125 0.6875 -0.875q0.46875 -0.296875 1.046875 -0.296875q0.421875 0 0.75 0.171875q0.328125 0.171875 0.53125 0.46875l0 -2.3125l0.796875 0l0 6.4375l-0.734375 0zm-2.5 -2.328125q0 0.890625 0.375 1.34375q0.375 0.4375 0.890625 0.4375q0.515625 0 0.875 -0.421875q0.375 -0.421875 0.375 -1.296875q0 -0.953125 -0.375 -1.40625q-0.375 -0.453125 -0.90625 -0.453125q-0.53125 0 -0.890625 0.4375q-0.34375 0.4375 -0.34375 1.359375zm7.703491 1.75q-0.4375 0.375 -0.84375 0.53125q-0.40625 0.15625 -0.875 0.15625q-0.765625 0 -1.1875 -0.375q-0.40625 -0.375 -0.40625 -0.96875q0 -0.34375 0.15625 -0.625q0.15625 -0.28125 0.40625 -0.453125q0.25 -0.171875 0.5625 -0.265625q0.234375 -0.046875 0.703125 -0.109375q0.96875 -0.109375 1.421875 -0.28125q0 -0.15625 0 -0.203125q0 -0.484375 -0.21875 -0.671875q-0.3125 -0.28125 -0.90625 -0.28125q-0.5625 0 -0.828125 0.203125q-0.265625 0.1875 -0.390625 0.6875l-0.765625 -0.09375q0.09375 -0.5 0.328125 -0.796875q0.25 -0.3125 0.703125 -0.46875q0.46875 -0.171875 1.0625 -0.171875q0.609375 0 0.96875 0.140625q0.375 0.140625 0.546875 0.359375q0.1875 0.203125 0.25 0.53125q0.046875 0.203125 0.046875 0.71875l0 1.0625q0 1.09375 0.046875 1.390625q0.046875 0.296875 0.203125 0.5625l-0.828125 0q-0.125 -0.25 -0.15625 -0.578125zm-0.0625 -1.765625q-0.4375 0.171875 -1.296875 0.296875q-0.484375 0.078125 -0.6875 0.171875q-0.203125 0.078125 -0.3125 0.25q-0.109375 0.171875 -0.109375 0.375q0 0.3125 0.234375 0.53125q0.234375 0.203125 0.703125 0.203125q0.453125 0 0.8125 -0.203125q0.359375 -0.203125 0.53125 -0.546875q0.125 -0.265625 0.125 -0.78125l0 -0.296875zm3.9378662 1.640625l0.109375 0.6875q-0.34375 0.078125 -0.59375 0.078125q-0.4375 0 -0.671875 -0.140625q-0.234375 -0.140625 -0.34375 -0.359375q-0.09375 -0.21875 -0.09375 -0.921875l0 -2.6875l-0.578125 0l0 -0.625l0.578125 0l0 -1.15625l0.796875 -0.46875l0 1.625l0.796875 0l0 0.625l-0.796875 0l0 2.71875q0 0.34375 0.03125 0.4375q0.046875 0.09375 0.140625 0.15625q0.09375 0.0625 0.265625 0.0625q0.140625 0 0.359375 -0.03125zm3.9041595 0.125q-0.4375 0.375 -0.84375 0.53125q-0.40625 0.15625 -0.875 0.15625q-0.765625 0 -1.1875 -0.375q-0.40625 -0.375 -0.40625 -0.96875q0 -0.34375 0.15625 -0.625q0.15625 -0.28125 0.40625 -0.453125q0.25 -0.171875 0.5625 -0.265625q0.234375 -0.046875 0.703125 -0.109375q0.96875 -0.109375 1.421875 -0.28125q0 -0.15625 0 -0.203125q0 -0.484375 -0.21875 -0.671875q-0.3125 -0.28125 -0.90625 -0.28125q-0.5625 0 -0.828125 0.203125q-0.265625 0.1875 -0.390625 0.6875l-0.765625 -0.09375q0.09375 -0.5 0.328125 -0.796875q0.25 -0.3125 0.703125 -0.46875q0.46875 -0.171875 1.0625 -0.171875q0.609375 0 0.96875 0.140625q0.375 0.140625 0.546875 0.359375q0.1875 0.203125 0.25 0.53125q0.046875 0.203125 0.046875 0.71875l0 1.0625q0 1.09375 0.046875 1.390625q0.046875 0.296875 0.203125 0.5625l-0.828125 0q-0.125 -0.25 -0.15625 -0.578125zm-0.0625 -1.765625q-0.4375 0.171875 -1.296875 0.296875q-0.484375 0.078125 -0.6875 0.171875q-0.203125 0.078125 -0.3125 0.25q-0.109375 0.171875 -0.109375 0.375q0 0.3125 0.234375 0.53125q0.234375 0.203125 0.703125 0.203125q0.453125 0 0.8125 -0.203125q0.359375 -0.203125 0.53125 -0.546875q0.125 -0.265625 0.125 -0.78125l0 -0.296875z" fill-rule="nonzero"></path><path fill="#000000" fill-opacity="0.0" d="m74.517525 33.508057l0 5.7322845" fill-rule="evenodd"></path><path stroke="#595959" stroke-width="1.0" stroke-linejoin="round" stroke-linecap="butt" d="m74.517525 33.508057l0 5.7322845" fill-rule="evenodd"></path><path fill="#000000" fill-opacity="0.0" d="m74.517525 70.76411l42.92914 5.7322845" fill-rule="evenodd"></path><path stroke="#595959" stroke-width="1.0" stroke-linejoin="round" stroke-linecap="butt" d="m74.517525 70.76411l42.92914 5.7322845" fill-rule="evenodd"></path><path fill="#000000" fill-opacity="0.0" d="m160.36949 70.77388l-42.92913 5.7322845" fill-rule="evenodd"></path><path stroke="#595959" stroke-width="1.0" stroke-linejoin="round" stroke-linecap="butt" d="m160.36949 70.77388l-42.92913 5.7322845" fill-rule="evenodd"></path><path fill="#000000" fill-opacity="0.0" d="m117.44666 108.039696l0 5.7322845" fill-rule="evenodd"></path><path stroke="#595959" stroke-width="1.0" stroke-linejoin="round" stroke-linecap="butt" d="m117.44666 108.039696l0 5.7322845" fill-rule="evenodd"></path><path fill="#434343" d="m35.83249 176.74927l0 0c0 -2.903534 2.3537827 -5.257324 5.2573204 -5.257324l152.7137 0c1.3943329 0 2.7315521 0.55389404 3.7174835 1.5398407c0.98594666 0.9859314 1.5398407 2.3231506 1.5398407 3.7174835l0 21.028656c0 2.9035492 -2.3537903 5.257324 -5.257324 5.257324l-152.7137 0l0 0c-2.9035378 0 -5.2573204 -2.353775 -5.2573204 -5.257324z" fill-rule="evenodd"></path><path stroke="#595959" stroke-width="1.0" stroke-linejoin="round" stroke-linecap="butt" d="m35.83249 176.74927l0 0c0 -2.903534 2.3537827 -5.257324 5.2573204 -5.257324l152.7137 0c1.3943329 0 2.7315521 0.55389404 3.7174835 1.5398407c0.98594666 0.9859314 1.5398407 2.3231506 1.5398407 3.7174835l0 21.028656c0 2.9035492 -2.3537903 5.257324 -5.257324 5.257324l-152.7137 0l0 0c-2.9035378 0 -5.2573204 -2.353775 -5.2573204 -5.257324z" fill-rule="evenodd"></path><path fill="#ffab40" d="m47.76542 190.7236l0 -4.671875l0.71875 0l0 0.71875q0.265625 -0.5 0.5 -0.65625q0.234375 -0.15625 0.515625 -0.15625q0.390625 0 0.8125 0.25l-0.28125 0.734375q-0.28125 -0.171875 -0.578125 -0.171875q-0.25 0 -0.46875 0.15625q-0.203125 0.15625 -0.296875 0.4375q-0.125 0.421875 -0.125 0.921875l0 2.4375l-0.796875 0zm6.3094635 -1.5l0.828125 0.09375q-0.203125 0.71875 -0.734375 1.125q-0.515625 0.390625 -1.328125 0.390625q-1.015625 0 -1.625 -0.625q-0.59375 -0.640625 -0.59375 -1.78125q0 -1.171875 0.609375 -1.8125q0.609375 -0.65625 1.578125 -0.65625q0.9375 0 1.515625 0.640625q0.59375 0.625 0.59375 1.78125q0 0.078125 0 0.21875l-3.484375 0q0.046875 0.765625 0.4375 1.171875q0.390625 0.40625 0.984375 0.40625q0.4375 0 0.734375 -0.21875q0.3125 -0.234375 0.484375 -0.734375zm-2.59375 -1.28125l2.609375 0q-0.046875 -0.59375 -0.296875 -0.890625q-0.375 -0.453125 -0.984375 -0.453125q-0.546875 0 -0.921875 0.375q-0.359375 0.359375 -0.40625 0.96875zm7.640991 1.078125l0.78125 0.09375q-0.125 0.8125 -0.65625 1.265625q-0.53125 0.453125 -1.296875 0.453125q-0.953125 0 -1.53125 -0.625q-0.578125 -0.625 -0.578125 -1.796875q0 -0.765625 0.25 -1.328125q0.25 -0.5625 0.75 -0.84375q0.515625 -0.28125 1.125 -0.28125q0.75 0 1.234375 0.390625q0.484375 0.375 0.625 1.078125l-0.765625 0.125q-0.109375 -0.46875 -0.390625 -0.703125q-0.28125 -0.25 -0.671875 -0.25q-0.609375 0 -0.984375 0.4375q-0.359375 0.421875 -0.359375 1.34375q0 0.953125 0.359375 1.375q0.359375 0.421875 0.9375 0.421875q0.46875 0 0.78125 -0.28125q0.3125 -0.28125 0.390625 -0.875zm1.3203125 -0.625q0 -1.296875 0.71875 -1.921875q0.609375 -0.515625 1.46875 -0.515625q0.96875 0 1.578125 0.625q0.609375 0.625 0.609375 1.734375q0 0.90625 -0.28125 1.421875q-0.265625 0.515625 -0.78125 0.8125q-0.515625 0.28125 -1.125 0.28125q-0.984375 0 -1.59375 -0.625q-0.59375 -0.640625 -0.59375 -1.8125zm0.8125 0q0 0.890625 0.390625 1.34375q0.390625 0.4375 0.984375 0.4375q0.59375 0 0.984375 -0.4375q0.390625 -0.453125 0.390625 -1.375q0 -0.859375 -0.390625 -1.3125q-0.390625 -0.453125 -0.984375 -0.453125q-0.59375 0 -0.984375 0.453125q-0.390625 0.4375 -0.390625 1.34375zm4.672241 2.328125l0 -4.671875l0.71875 0l0 0.671875q0.5 -0.765625 1.484375 -0.765625q0.421875 0 0.765625 0.15625q0.359375 0.140625 0.53125 0.390625q0.171875 0.234375 0.25 0.578125q0.046875 0.21875 0.046875 0.765625l0 2.875l-0.796875 0l0 -2.84375q0 -0.484375 -0.09375 -0.71875q-0.09375 -0.234375 -0.328125 -0.375q-0.234375 -0.15625 -0.546875 -0.15625q-0.5 0 -0.875 0.328125q-0.359375 0.3125 -0.359375 1.21875l0 2.546875l-0.796875 0zm4.875366 -1.390625l0.78125 -0.125q0.0625 0.46875 0.359375 0.71875q0.3125 0.25 0.84375 0.25q0.546875 0 0.8125 -0.21875q0.265625 -0.21875 0.265625 -0.515625q0 -0.28125 -0.234375 -0.421875q-0.171875 -0.109375 -0.8125 -0.28125q-0.875 -0.21875 -1.21875 -0.375q-0.328125 -0.15625 -0.5 -0.4375q-0.171875 -0.28125 -0.171875 -0.625q0 -0.3125 0.140625 -0.578125q0.140625 -0.265625 0.390625 -0.453125q0.1875 -0.125 0.5 -0.21875q0.328125 -0.09375 0.6875 -0.09375q0.546875 0 0.953125 0.15625q0.421875 0.15625 0.625 0.421875q0.203125 0.265625 0.28125 0.71875l-0.78125 0.109375q-0.046875 -0.359375 -0.3125 -0.5625q-0.25 -0.203125 -0.703125 -0.203125q-0.546875 0 -0.78125 0.1875q-0.234375 0.171875 -0.234375 0.421875q0 0.15625 0.09375 0.265625q0.09375 0.140625 0.3125 0.21875q0.109375 0.046875 0.6875 0.203125q0.84375 0.21875 1.171875 0.359375q0.34375 0.140625 0.53125 0.421875q0.1875 0.265625 0.1875 0.671875q0 0.40625 -0.234375 0.75q-0.234375 0.34375 -0.671875 0.546875q-0.421875 0.1875 -0.984375 0.1875q-0.90625 0 -1.390625 -0.375q-0.46875 -0.390625 -0.59375 -1.125zm6.7109375 0.6875l0.109375 0.6875q-0.34375 0.078125 -0.59375 0.078125q-0.4375 0 -0.671875 -0.140625q-0.234375 -0.140625 -0.34375 -0.359375q-0.09375 -0.21875 -0.09375 -0.921875l0 -2.6875l-0.578125 0l0 -0.625l0.578125 0l0 -1.15625l0.796875 -0.46875l0 1.625l0.796875 0l0 0.625l-0.796875 0l0 2.71875q0 0.34375 0.03125 0.4375q0.046875 0.09375 0.140625 0.15625q0.09375 0.0625 0.265625 0.0625q0.140625 0 0.359375 -0.03125zm0.84165955 0.703125l0 -4.671875l0.71875 0l0 0.71875q0.265625 -0.5 0.5 -0.65625q0.234375 -0.15625 0.515625 -0.15625q0.390625 0 0.8125 0.25l-0.28125 0.734375q-0.28125 -0.171875 -0.578125 -0.171875q-0.25 0 -0.46875 0.15625q-0.203125 0.15625 -0.296875 0.4375q-0.125 0.421875 -0.125 0.921875l0 2.4375l-0.796875 0zm6.1844635 0l0 -0.6875q-0.546875 0.796875 -1.484375 0.796875q-0.40625 0 -0.765625 -0.15625q-0.359375 -0.171875 -0.546875 -0.40625q-0.171875 -0.234375 -0.234375 -0.578125q-0.046875 -0.234375 -0.046875 -0.75l0 -2.890625l0.78125 0l0 2.59375q0 0.625 0.0625 0.828125q0.0625 0.3125 0.296875 0.5q0.25 0.171875 0.609375 0.171875q0.359375 0 0.671875 -0.171875q0.3125 -0.1875 0.4375 -0.5q0.125 -0.3125 0.125 -0.921875l0 -2.5l0.796875 0l0 4.671875l-0.703125 0zm5.172241 -1.703125l0.78125 0.09375q-0.125 0.8125 -0.65625 1.265625q-0.53125 0.453125 -1.296875 0.453125q-0.953125 0 -1.53125 -0.625q-0.578125 -0.625 -0.578125 -1.796875q0 -0.765625 0.25 -1.328125q0.25 -0.5625 0.75 -0.84375q0.515625 -0.28125 1.125 -0.28125q0.75 0 1.234375 0.390625q0.484375 0.375 0.625 1.078125l-0.765625 0.125q-0.109375 -0.46875 -0.390625 -0.703125q-0.28125 -0.25 -0.671875 -0.25q-0.609375 0 -0.984375 0.4375q-0.359375 0.421875 -0.359375 1.34375q0 0.953125 0.359375 1.375q0.359375 0.421875 0.9375 0.421875q0.46875 0 0.78125 -0.28125q0.3125 -0.28125 0.390625 -0.875zm3.3515625 1.0l0.109375 0.6875q-0.34375 0.078125 -0.59375 0.078125q-0.4375 0 -0.671875 -0.140625q-0.234375 -0.140625 -0.34375 -0.359375q-0.09375 -0.21875 -0.09375 -0.921875l0 -2.6875l-0.578125 0l0 -0.625l0.578125 0l0 -1.15625l0.796875 -0.46875l0 1.625l0.796875 0l0 0.625l-0.796875 0l0 2.71875q0 0.34375 0.03125 0.4375q0.046875 0.09375 0.140625 0.15625q0.09375 0.0625 0.265625 0.0625q0.140625 0 0.359375 -0.03125zm4.0447845 -0.796875l0.828125 0.09375q-0.203125 0.71875 -0.734375 1.125q-0.515625 0.390625 -1.328125 0.390625q-1.015625 0 -1.625 -0.625q-0.59375 -0.640625 -0.59375 -1.78125q0 -1.171875 0.609375 -1.8125q0.609375 -0.65625 1.578125 -0.65625q0.9375 0 1.515625 0.640625q0.59375 0.625 0.59375 1.78125q0 0.078125 0 0.21875l-3.484375 0q0.046875 0.765625 0.4375 1.171875q0.390625 0.40625 0.984375 0.40625q0.4375 0 0.734375 -0.21875q0.3125 -0.234375 0.484375 -0.734375zm-2.59375 -1.28125l2.609375 0q-0.046875 -0.59375 -0.296875 -0.890625q-0.375 -0.453125 -0.984375 -0.453125q-0.546875 0 -0.921875 0.375q-0.359375 0.359375 -0.40625 0.96875zm7.625366 2.78125l0 -0.59375q-0.453125 0.703125 -1.3125 0.703125q-0.546875 0 -1.015625 -0.3125q-0.46875 -0.3125 -0.734375 -0.859375q-0.25 -0.546875 -0.25 -1.265625q0 -0.703125 0.234375 -1.265625q0.234375 -0.578125 0.6875 -0.875q0.46875 -0.296875 1.046875 -0.296875q0.421875 0 0.75 0.171875q0.328125 0.171875 0.53125 0.46875l0 -2.3125l0.796875 0l0 6.4375l-0.734375 0zm-2.5 -2.328125q0 0.890625 0.375 1.34375q0.375 0.4375 0.890625 0.4375q0.515625 0 0.875 -0.421875q0.375 -0.421875 0.375 -1.296875q0 -0.953125 -0.375 -1.40625q-0.375 -0.453125 -0.90625 -0.453125q-0.53125 0 -0.890625 0.4375q-0.34375 0.4375 -0.34375 1.359375zm7.2482758 2.328125l0 -6.4375l0.796875 0l0 2.3125q0.546875 -0.640625 1.390625 -0.640625q0.515625 0 0.890625 0.203125q0.390625 0.203125 0.546875 0.5625q0.171875 0.359375 0.171875 1.046875l0 2.953125l-0.78125 0l0 -2.953125q0 -0.59375 -0.265625 -0.859375q-0.25 -0.28125 -0.71875 -0.28125q-0.359375 0 -0.671875 0.1875q-0.3125 0.171875 -0.4375 0.484375q-0.125 0.3125 -0.125 0.875l0 2.546875l-0.796875 0zm5.187866 -5.53125l0 -0.90625l0.796875 0l0 0.90625l-0.796875 0zm0 5.53125l0 -4.671875l0.796875 0l0 4.671875l-0.796875 0zm1.9317932 0.390625l0.765625 0.109375q0.046875 0.359375 0.265625 0.515625q0.296875 0.21875 0.8125 0.21875q0.546875 0 0.84375 -0.21875q0.296875 -0.21875 0.40625 -0.609375q0.0625 -0.25 0.046875 -1.015625q-0.515625 0.609375 -1.28125 0.609375q-0.96875 0 -1.5 -0.6875q-0.515625 -0.703125 -0.515625 -1.671875q0 -0.671875 0.234375 -1.234375q0.25 -0.5625 0.703125 -0.859375q0.453125 -0.3125 1.078125 -0.3125q0.828125 0 1.359375 0.65625l0 -0.5625l0.734375 0l0 4.03125q0 1.09375 -0.234375 1.546875q-0.21875 0.453125 -0.703125 0.71875q-0.46875 0.265625 -1.171875 0.265625q-0.84375 0 -1.359375 -0.375q-0.5 -0.375 -0.484375 -1.125zm0.65625 -2.8125q0 0.921875 0.359375 1.34375q0.359375 0.421875 0.90625 0.421875q0.546875 0 0.921875 -0.421875q0.375 -0.421875 0.375 -1.3125q0 -0.859375 -0.390625 -1.296875q-0.375 -0.4375 -0.90625 -0.4375q-0.53125 0 -0.90625 0.4375q-0.359375 0.421875 -0.359375 1.265625zm4.672241 2.421875l0 -6.4375l0.796875 0l0 2.3125q0.546875 -0.640625 1.390625 -0.640625q0.515625 0 0.890625 0.203125q0.390625 0.203125 0.546875 0.5625q0.171875 0.359375 0.171875 1.046875l0 2.953125l-0.78125 0l0 -2.953125q0 -0.59375 -0.265625 -0.859375q-0.25 -0.28125 -0.71875 -0.28125q-0.359375 0 -0.671875 0.1875q-0.3125 0.171875 -0.4375 0.484375q-0.125 0.3125 -0.125 0.875l0 2.546875l-0.796875 0zm7.7639008 0l0 -4.671875l0.71875 0l0 0.71875q0.26561737 -0.5 0.49999237 -0.65625q0.234375 -0.15625 0.515625 -0.15625q0.390625 0 0.8125 0.25l-0.28125 0.734375q-0.28125 -0.171875 -0.578125 -0.171875q-0.25 0 -0.46875 0.15625q-0.203125 0.15625 -0.296875 0.4375q-0.12499237 0.421875 -0.12499237 0.921875l0 2.4375l-0.796875 0zm6.309456 -1.5l0.828125 0.09375q-0.203125 0.71875 -0.734375 1.125q-0.515625 0.390625 -1.328125 0.390625q-1.015625 0 -1.625 -0.625q-0.59375 -0.640625 -0.59375 -1.78125q0 -1.171875 0.609375 -1.8125q0.609375 -0.65625 1.578125 -0.65625q0.9375 0 1.515625 0.640625q0.59375 0.625 0.59375 1.78125q0 0.078125 0 0.21875l-3.484375 0q0.046875 0.765625 0.4375 1.171875q0.390625 0.40625 0.984375 0.40625q0.4375 0 0.734375 -0.21875q0.3125 -0.234375 0.484375 -0.734375zm-2.59375 -1.28125l2.609375 0q-0.046875 -0.59375 -0.296875 -0.890625q-0.375 -0.453125 -0.984375 -0.453125q-0.546875 0 -0.921875 0.375q-0.359375 0.359375 -0.40625 0.96875zm4.281616 1.390625l0.78125 -0.125q0.0625 0.46875 0.359375 0.71875q0.3125 0.25 0.84375 0.25q0.546875 0 0.8125 -0.21875q0.265625 -0.21875 0.265625 -0.515625q0 -0.28125 -0.234375 -0.421875q-0.171875 -0.109375 -0.8125 -0.28125q-0.875 -0.21875 -1.21875 -0.375q-0.328125 -0.15625 -0.5 -0.4375q-0.171875 -0.28125 -0.171875 -0.625q0 -0.3125 0.140625 -0.578125q0.140625 -0.265625 0.390625 -0.453125q0.1875 -0.125 0.5 -0.21875q0.328125 -0.09375 0.6875 -0.09375q0.546875 0 0.953125 0.15625q0.421875 0.15625 0.625 0.421875q0.203125 0.265625 0.28125 0.71875l-0.78125 0.109375q-0.046875 -0.359375 -0.3125 -0.5625q-0.25 -0.203125 -0.703125 -0.203125q-0.546875 0 -0.78125 0.1875q-0.234375 0.171875 -0.234375 0.421875q0 0.15625 0.09375 0.265625q0.09375 0.140625 0.3125 0.21875q0.109375 0.046875 0.6875 0.203125q0.84375 0.21875 1.171875 0.359375q0.34375 0.140625 0.53125 0.421875q0.1875 0.265625 0.1875 0.671875q0 0.40625 -0.234375 0.75q-0.234375 0.34375 -0.671875 0.546875q-0.421875 0.1875 -0.984375 0.1875q-0.90625 0 -1.390625 -0.375q-0.46875 -0.390625 -0.59375 -1.125zm4.6796875 -0.9375q0 -1.296875 0.71875 -1.921875q0.609375 -0.515625 1.46875 -0.515625q0.96875 0 1.578125 0.625q0.609375 0.625 0.609375 1.734375q0 0.90625 -0.28125 1.421875q-0.265625 0.515625 -0.78125 0.8125q-0.515625 0.28125 -1.125 0.28125q-0.984375 0 -1.59375 -0.625q-0.59375 -0.640625 -0.59375 -1.8125zm0.8125 0q0 0.890625 0.390625 1.34375q0.390625 0.4375 0.984375 0.4375q0.59375 0 0.984375 -0.4375q0.390625 -0.453125 0.390625 -1.375q0 -0.859375 -0.390625 -1.3125q-0.390625 -0.453125 -0.984375 -0.453125q-0.59375 0 -0.984375 0.453125q-0.390625 0.4375 -0.390625 1.34375zm4.656616 2.328125l0 -6.4375l0.78125 0l0 6.4375l-0.78125 0zm5.150543 0l0 -0.6875q-0.546875 0.796875 -1.484375 0.796875q-0.40625 0 -0.765625 -0.15625q-0.359375 -0.171875 -0.546875 -0.40625q-0.171875 -0.234375 -0.234375 -0.578125q-0.046875 -0.234375 -0.046875 -0.75l0 -2.890625l0.78125 0l0 2.59375q0 0.625 0.0625 0.828125q0.0625 0.3125 0.296875 0.5q0.25 0.171875 0.609375 0.171875q0.359375 0 0.671875 -0.171875q0.3125 -0.1875 0.4375 -0.5q0.125 -0.3125 0.125 -0.921875l0 -2.5l0.796875 0l0 4.671875l-0.703125 0zm3.8597412 -0.703125l0.109375 0.6875q-0.34375 0.078125 -0.59375 0.078125q-0.4375 0 -0.671875 -0.140625q-0.234375 -0.140625 -0.34375 -0.359375q-0.09375 -0.21875 -0.09375 -0.921875l0 -2.6875l-0.578125 0l0 -0.625l0.578125 0l0 -1.15625l0.796875 -0.46875l0 1.625l0.796875 0l0 0.625l-0.796875 0l0 2.71875q0 0.34375 0.03125 0.4375q0.046875 0.09375 0.140625 0.15625q0.09375 0.0625 0.265625 0.0625q0.140625 0 0.359375 -0.03125zm0.85728455 -4.828125l0 -0.90625l0.796875 0l0 0.90625l-0.796875 0zm0 5.53125l0 -4.671875l0.796875 0l0 4.671875l-0.796875 0zm1.7755432 -2.328125q0 -1.296875 0.71875 -1.921875q0.609375 -0.515625 1.46875 -0.515625q0.96875 0 1.578125 0.625q0.609375 0.625 0.609375 1.734375q0 0.90625 -0.28125 1.421875q-0.265625 0.515625 -0.78125 0.8125q-0.515625 0.28125 -1.125 0.28125q-0.984375 0 -1.59375 -0.625q-0.59375 -0.640625 -0.59375 -1.8125zm0.8125 0q0 0.890625 0.390625 1.34375q0.390625 0.4375 0.984375 0.4375q0.59375 0 0.984375 -0.4375q0.390625 -0.453125 0.390625 -1.375q0 -0.859375 -0.390625 -1.3125q-0.390625 -0.453125 -0.984375 -0.453125q-0.59375 0 -0.984375 0.453125q-0.390625 0.4375 -0.390625 1.34375zm4.672241 2.328125l0 -4.671875l0.71875 0l0 0.671875q0.5 -0.765625 1.484375 -0.765625q0.421875 0 0.765625 0.15625q0.359375 0.140625 0.53125 0.390625q0.171875 0.234375 0.25 0.578125q0.046875 0.21875 0.046875 0.765625l0 2.875l-0.796875 0l0 -2.84375q0 -0.484375 -0.09375 -0.71875q-0.09375 -0.234375 -0.328125 -0.375q-0.234375 -0.15625 -0.546875 -0.15625q-0.5 0 -0.875 0.328125q-0.359375 0.3125 -0.359375 1.21875l0 2.546875l-0.796875 0zm7.7795258 0l0 -4.671875l0.703125 0l0 0.65625q0.21875 -0.34375 0.578125 -0.546875q0.375 -0.203125 0.84375 -0.203125q0.515625 0 0.84375 0.21875q0.328125 0.203125 0.46875 0.59375q0.5625 -0.8125 1.4375 -0.8125q0.703125 0 1.078125 0.390625q0.375 0.375 0.375 1.171875l0 3.203125l-0.796875 0l0 -2.9375q0 -0.484375 -0.078125 -0.6875q-0.0625 -0.203125 -0.265625 -0.328125q-0.203125 -0.140625 -0.484375 -0.140625q-0.484375 0 -0.8125 0.328125q-0.328125 0.328125 -0.328125 1.046875l0 2.71875l-0.796875 0l0 -3.03125q0 -0.53125 -0.1875 -0.796875q-0.1875 -0.265625 -0.625 -0.265625q-0.34375 0 -0.625 0.1875q-0.28125 0.171875 -0.40625 0.515625q-0.125 0.328125 -0.125 0.96875l0 2.421875l-0.796875 0zm10.817276 -0.578125q-0.4375 0.375 -0.84375 0.53125q-0.40625 0.15625 -0.875 0.15625q-0.765625 0 -1.1875 -0.375q-0.40625 -0.375 -0.40625 -0.96875q0 -0.34375 0.15625 -0.625q0.15625 -0.28125 0.40625 -0.453125q0.25 -0.171875 0.5625 -0.265625q0.234375 -0.046875 0.703125 -0.109375q0.96875 -0.109375 1.421875 -0.28125q0 -0.15625 0 -0.203125q0 -0.484375 -0.21875 -0.671875q-0.3125 -0.28125 -0.90625 -0.28125q-0.5625 0 -0.828125 0.203125q-0.265625 0.1875 -0.390625 0.6875l-0.765625 -0.09375q0.09375 -0.5 0.328125 -0.796875q0.25 -0.3125 0.703125 -0.46875q0.46875 -0.171875 1.0625 -0.171875q0.609375 0 0.96875 0.140625q0.375 0.140625 0.546875 0.359375q0.1875 0.203125 0.25 0.53125q0.046875 0.203125 0.046875 0.71875l0 1.0625q0 1.09375 0.046875 1.390625q0.046875 0.296875 0.203125 0.5625l-0.828125 0q-0.125 -0.25 -0.15625 -0.578125zm-0.0625 -1.765625q-0.4375 0.171875 -1.296875 0.296875q-0.484375 0.078125 -0.6875 0.171875q-0.203125 0.078125 -0.3125 0.25q-0.109375 0.171875 -0.109375 0.375q0 0.3125 0.234375 0.53125q0.234375 0.203125 0.703125 0.203125q0.453125 0 0.8125 -0.203125q0.359375 -0.203125 0.53125 -0.546875q0.125 -0.265625 0.125 -0.78125l0 -0.296875zm2.2034912 4.125l0 -6.453125l0.71875 0l0 0.609375q0.25 -0.359375 0.5625 -0.53125q0.328125 -0.171875 0.796875 -0.171875q0.59375 0 1.046875 0.3125q0.453125 0.296875 0.6875 0.859375q0.234375 0.5625 0.234375 1.21875q0 0.71875 -0.265625 1.296875q-0.25 0.578125 -0.734375 0.890625q-0.484375 0.296875 -1.03125 0.296875q-0.390625 0 -0.703125 -0.171875q-0.3125 -0.171875 -0.515625 -0.421875l0 2.265625l-0.796875 0zm0.71875 -4.09375q0 0.90625 0.359375 1.34375q0.375 0.421875 0.890625 0.421875q0.515625 0 0.890625 -0.4375q0.390625 -0.453125 0.390625 -1.390625q0 -0.890625 -0.375 -1.328125q-0.359375 -0.453125 -0.875 -0.453125q-0.5 0 -0.890625 0.484375q-0.390625 0.46875 -0.390625 1.359375z" fill-rule="nonzero"></path><path fill="#000000" fill-opacity="0.0" d="m117.44318 145.29802l0 9.370071" fill-rule="evenodd"></path><path stroke="#595959" stroke-width="1.0" stroke-linejoin="round" stroke-linecap="butt" stroke-dasharray="4.0,3.0" d="m117.44318 145.29802l0 9.370071" fill-rule="evenodd"></path><path fill="#000000" fill-opacity="0.0" d="m117.44318 162.11902l0 9.370071" fill-rule="evenodd"></path><path stroke="#595959" stroke-width="1.0" stroke-linejoin="round" stroke-linecap="butt" stroke-dasharray="4.0,3.0" d="m117.44318 162.11902l0 9.370071" fill-rule="evenodd"></path><path fill="#000000" fill-opacity="0.0" d="m108.93444 147.30333l28.047249 0l0 16.173233l-28.047249 0z" fill-rule="evenodd"></path><path fill="#000000" d="m113.74694 158.84995l0 -0.90625l0.90625 0l0 0.90625l-0.90625 0zm2.5916595 0l0 -0.90625l0.90625 0l0 0.90625l-0.90625 0zm2.5916595 0l0 -0.90625l0.90625 0l0 0.90625l-0.90625 0z" fill-rule="nonzero"></path><path fill="#000000" fill-opacity="0.0" d="m28.986408 47.127247l0 118.834656l-28.047243 0l0 -118.834656z" fill-rule="evenodd"></path><path fill="#000000" d="m13.46641 53.54912l8.59375 -2.28125l0 1.171875l-5.640625 1.3125q-0.875 0.203125 -1.75 0.359375q1.375 0.328125 1.59375 0.390625l5.796875 1.625l0 1.375l-4.34375 1.234375q-1.625 0.453125 -3.046875 0.671875q0.8125 0.15625 1.875 0.421875l5.515625 1.34375l0 1.140625l-8.59375 -2.34375l0 -1.109375l6.546875 -1.796875q0.8125 -0.234375 1.0 -0.28125q-0.578125 -0.125 -1.0 -0.25l-6.546875 -1.8125l0 -1.171875zm3.109375 9.310547q1.734375 0 2.5625 0.953125q0.6875 0.7968788 0.6875 1.9531288q0 1.28125 -0.84375 2.09375q-0.828125 0.828125 -2.3125 0.828125q-1.203125 0 -1.890625 -0.359375q-0.6875 -0.359375 -1.078125 -1.0625q-0.375 -0.6875 -0.375 -1.5q0 -1.296875 0.828125 -2.1093788q0.84375 -0.796875 2.421875 -0.796875zm0 1.078125q-1.1875 0 -1.78125 0.5156288q-0.59375 0.53125 -0.59375 1.3125q0 0.796875 0.59375 1.3125q0.59375 0.515625 1.8125 0.515625q1.15625 0 1.75 -0.53125q0.59375 -0.515625 0.59375 -1.296875q0 -0.78125 -0.59375 -1.3125q-0.578125 -0.5156288 -1.78125 -0.5156288zm-3.109375 5.970707l6.21875 0l0 0.953125l-0.9375 0q0.65625 0.359375 0.859375 0.65625q0.21875 0.3125 0.21875 0.6875q0 0.53125 -0.328125 1.078125l-0.984375 -0.359375q0.234375 -0.390625 0.234375 -0.765625q0 -0.359375 -0.21875 -0.640625q-0.203125 -0.265625 -0.578125 -0.375q-0.5625 -0.1875 -1.21875 -0.1875l-3.265625 0l0 -1.046875zm0 4.0117188l8.59375 0l0 1.0625l-4.90625 0l2.53125 2.484375l0 1.375l-2.296875 -2.390625l-3.921875 2.625l0 -1.296875l3.1875 -2.0625l-0.71875 -0.734375l-2.46875 0l0 -1.0625zm0 6.25l5.40625 0l0 -0.9375l0.8125 0l0 0.9375l0.671875 0q0.625 0 0.921875 0.109375q0.421875 0.15625 0.671875 0.53125q0.25 0.390625 0.25 1.078125q0 0.453125 -0.109375 0.984375l-0.90625 -0.15625q0.046875 -0.328125 0.046875 -0.625q0 -0.484375 -0.203125 -0.6875q-0.203125 -0.1875 -0.765625 -0.1875l-0.578125 0l0 1.21875l-0.8125 0l0 -1.21875l-5.40625 0l0 -1.046875zm0 3.0527344l8.59375 0l0 1.0625l-8.59375 0l0 -1.0625zm3.109375 2.3066406q1.734375 0 2.5625 0.953125q0.6875 0.796875 0.6875 1.953125q0 1.28125 -0.84375 2.09375q-0.828125 0.828125 -2.3125 0.828125q-1.203125 0 -1.890625 -0.359375q-0.6875 -0.359375 -1.078125 -1.0625q-0.375 -0.6875 -0.375 -1.5q0 -1.296875 0.828125 -2.109375q0.84375 -0.796875 2.421875 -0.796875zm0 1.078125q-1.1875 0 -1.78125 0.515625q-0.59375 0.53125 -0.59375 1.3125q0 0.796875 0.59375 1.3125q0.59375 0.515625 1.8125 0.515625q1.15625 0 1.75 -0.53125q0.59375 -0.515625 0.59375 -1.296875q0 -0.78125 -0.59375 -1.3125q-0.578125 -0.515625 -1.78125 -0.515625zm-3.109375 7.126953l6.21875 -1.90625l0 1.09375l-3.59375 0.984375l-1.328125 0.375q0.09375 0.03125 1.28125 0.328125l3.640625 0.984375l0 1.078125l-3.609375 0.9375l-1.1875 0.3125l1.203125 0.359375l3.59375 1.0625l0 1.03125l-6.21875 -1.953125l0 -1.09375l3.734375 -0.984375l1.046875 -0.25l-4.78125 -1.25l0 -1.109375z" fill-rule="nonzero"></path><path fill="#000000" fill-opacity="0.0" d="m25.92165 39.940063l0 130.09448" fill-rule="evenodd"></path><path stroke="#0097a7" stroke-width="4.0" stroke-linejoin="round" stroke-linecap="butt" d="m25.92165 39.940063l0 106.09448" fill-rule="evenodd"></path><path fill="#0097a7" stroke="#0097a7" stroke-width="4.0" stroke-linecap="butt" d="m19.31472 146.03455l6.60693 18.15239l6.60693 -18.15239z" fill-rule="evenodd"></path></g></svg>

