<?xml version="1.0" standalone="yes"?>

<svg version="1.1" viewBox="0.0 0.0 938.0 230.0" fill="none" stroke="none" stroke-linecap="square" stroke-miterlimit="10" xmlns="http://www.w3.org/2000/svg" xmlns:xlink="http://www.w3.org/1999/xlink"><clipPath id="p.0"><path d="m0 0l938.0 0l0 230.0l-938.0 0l0 -230.0z" clip-rule="nonzero"></path></clipPath><g clip-path="url(#p.0)"><path fill="#000000" fill-opacity="0.0" d="m0 0l938.0 0l0 230.0l-938.0 0z" fill-rule="evenodd"></path><path fill="#eeeeee" d="m1.6337303 99.82569l0 0c0 7.874542 30.416471 14.258125 67.937096 14.258125c37.520622 0 67.937096 -6.383583 67.937096 -14.258125l0 85.54876c0 7.874542 -30.416473 14.258118 -67.937096 14.258118c-37.520622 0 -67.937096 -6.3835754 -67.937096 -14.258118z" fill-rule="evenodd"></path><path fill="#f4f4f4" d="m1.6337303 99.82569l0 0c0 -7.87455 30.416471 -14.258125 67.937096 -14.258125c37.520622 0 67.937096 6.3835754 67.937096 14.258125l0 0c0 7.874542 -30.416473 14.258125 -67.937096 14.258125c-37.520622 0 -67.937096 -6.383583 -67.937096 -14.258125z" fill-rule="evenodd"></path><path fill="#000000" fill-opacity="0.0" d="m137.50792 99.82569l0 0c0 7.874542 -30.416473 14.258125 -67.937096 14.258125c-37.520622 0 -67.937096 -6.383583 -67.937096 -14.258125l0 0c0 -7.87455 30.416471 -14.258125 67.937096 -14.258125c37.520622 0 67.937096 6.3835754 67.937096 14.258125l0 85.54876c0 7.874542 -30.416473 14.258118 -67.937096 14.258118c-37.520622 0 -67.937096 -6.3835754 -67.937096 -14.258118l0 -85.54876" fill-rule="evenodd"></path><path stroke="#595959" stroke-width="1.0" stroke-linejoin="round" stroke-linecap="butt" d="m137.50792 99.82569l0 0c0 7.874542 -30.416473 14.258125 -67.937096 14.258125c-37.520622 0 -67.937096 -6.383583 -67.937096 -14.258125l0 0c0 -7.87455 30.416471 -14.258125 67.937096 -14.258125c37.520622 0 67.937096 6.3835754 67.937096 14.258125l0 85.54876c0 7.874542 -30.416473 14.258118 -67.937096 14.258118c-37.520622 0 -67.937096 -6.3835754 -67.937096 -14.258118l0 -85.54876" fill-rule="evenodd"></path><path fill="#000000" d="m12.493105 148.76913l0 -17.1875l6.46875 0q1.71875 0 2.625 0.171875q1.265625 0.203125 2.109375 0.796875q0.859375 0.59375 1.375 1.671875q0.53125 1.0625 0.53125 2.328125q0 2.203125 -1.40625 3.71875q-1.390625 1.515625 -5.03125 1.515625l-4.40625 0l0 6.984375l-2.265625 0zm2.265625 -9.015625l4.4375 0q2.203125 0 3.125 -0.8125q0.9375 -0.828125 0.9375 -2.3125q0 -1.078125 -0.546875 -1.84375q-0.546875 -0.765625 -1.4375 -1.015625q-0.578125 -0.15625 -2.125 -0.15625l-4.390625 0l0 6.140625zm25.99219 2.984375l2.28125 0.578125q-0.71875 2.796875 -2.578125 4.28125q-1.859375 1.46875 -4.546875 1.46875q-2.765625 0 -4.515627 -1.125q-1.734375 -1.140625 -2.640625 -3.28125q-0.90625 -2.15625 -0.90625 -4.609375q0 -2.6875 1.015625 -4.6875q1.03125 -2.0 2.921875 -3.03125q1.8906269 -1.03125 4.171877 -1.03125q2.578125 0 4.328125 1.3125q1.765625 1.3125 2.453125 3.6875l-2.234375 0.53125q-0.609375 -1.875 -1.75 -2.734375q-1.125 -0.859375 -2.84375 -0.859375q-1.984375 0 -3.3125 0.953125q-1.3281269 0.953125 -1.8750019 2.546875q-0.53125 1.59375 -0.53125 3.296875q0 2.1875 0.625 3.828125q0.640625 1.640625 1.9843769 2.453125q1.359375 0.796875 2.921875 0.796875q1.921875 0 3.234375 -1.09375q1.328125 -1.109375 1.796875 -3.28125z" fill-rule="nonzero"></path><path fill="#000000" d="m11.13373 167.60475l1.390625 -0.21875q0.109375 0.84375 0.640625 1.296875q0.546875 0.4375 1.5 0.4375q0.96875 0 1.4375 -0.390625q0.46875 -0.40625 0.46875 -0.9375q0 -0.46875 -0.40625 -0.75q-0.296875 -0.1875 -1.4375 -0.46875q-1.546875 -0.390625 -2.15625 -0.671875q-0.59375 -0.296875 -0.90625 -0.796875q-0.296875 -0.5 -0.296875 -1.109375q0 -0.5625 0.25 -1.03125q0.25 -0.46875 0.6875 -0.78125q0.328125 -0.25 0.890625 -0.40625q0.578125 -0.171875 1.21875 -0.171875q0.984375 0 1.71875 0.28125q0.734375 0.28125 1.078125 0.765625q0.359375 0.46875 0.5 1.28125l-1.375 0.1875q-0.09375 -0.640625 -0.546875 -1.0q-0.453125 -0.359375 -1.265625 -0.359375q-0.96875 0 -1.390625 0.328125q-0.40625 0.3125 -0.40625 0.734375q0 0.28125 0.171875 0.5q0.171875 0.21875 0.53125 0.375q0.21875 0.078125 1.25 0.359375q1.484375 0.390625 2.078125 0.65625q0.59375 0.25 0.921875 0.734375q0.34375 0.484375 0.34375 1.203125q0 0.703125 -0.421875 1.328125q-0.40625 0.609375 -1.1875 0.953125q-0.765625 0.34375 -1.734375 0.34375q-1.625 0 -2.46875 -0.671875q-0.84375 -0.671875 -1.078125 -2.0zm11.625 1.21875l0.203125 1.25q-0.59375 0.125 -1.0625 0.125q-0.765625 0 -1.1875 -0.234375q-0.421875 -0.25 -0.59375 -0.640625q-0.171875 -0.40625 -0.171875 -1.671875l0 -4.765625l-1.03125 0l0 -1.09375l1.03125 0l0 -2.0625l1.40625 -0.84375l0 2.90625l1.40625 0l0 1.09375l-1.40625 0l0 4.84375q0 0.609375 0.0625 0.78125q0.078125 0.171875 0.25 0.28125q0.171875 0.09375 0.484375 0.09375q0.234375 0 0.609375 -0.0625zm0.8515625 -2.890625q0 -2.296875 1.28125 -3.40625q1.078125 -0.921875 2.609375 -0.921875q1.71875 0 2.796875 1.125q1.09375 1.109375 1.09375 3.09375q0 1.59375 -0.484375 2.515625q-0.484375 0.921875 -1.40625 1.4375q-0.90625 0.5 -2.0 0.5q-1.734375 0 -2.8125 -1.109375q-1.078125 -1.125 -1.078125 -3.234375zm1.453125 0q0 1.59375 0.6875 2.390625q0.703125 0.796875 1.75 0.796875q1.046875 0 1.734375 -0.796875q0.703125 -0.796875 0.703125 -2.4375q0 -1.53125 -0.703125 -2.328125q-0.6875 -0.796875 -1.734375 -0.796875q-1.046875 0 -1.75 0.796875q-0.6875 0.78125 -0.6875 2.375zm7.9609394 4.15625l0 -8.296875l1.265625 0l0 1.25q0.484375 -0.875 0.890625 -1.15625q0.40625 -0.28125 0.90625 -0.28125q0.703125 0 1.4375 0.453125l-0.484375 1.296875q-0.515625 -0.296875 -1.03125 -0.296875q-0.453125 0 -0.828125 0.28125q-0.359375 0.265625 -0.515625 0.765625q-0.234375 0.75 -0.234375 1.640625l0 4.34375l-1.40625 0zm10.75 -1.03125q-0.78125 0.671875 -1.5 0.953125q-0.71875 0.265625 -1.546875 0.265625q-1.375 0 -2.109375 -0.671875q-0.734375 -0.671875 -0.734375 -1.703125q0 -0.609375 0.28125 -1.109375q0.28125 -0.515625 0.71875 -0.8125q0.453125 -0.3125 1.015625 -0.46875q0.421875 -0.109375 1.25 -0.203125q1.703125 -0.203125 2.515625 -0.484375q0 -0.296875 0 -0.375q0 -0.859375 -0.390625 -1.203125q-0.546875 -0.484375 -1.609375 -0.484375q-0.984375 0 -1.46875 0.359375q-0.46875 0.34375 -0.6875 1.21875l-1.375 -0.1875q0.1875 -0.875 0.609375 -1.421875q0.4375 -0.546875 1.25 -0.828125q0.8125 -0.296875 1.875 -0.296875q1.0625 0 1.71875 0.25q0.671875 0.25 0.984375 0.625q0.3125 0.375 0.4375 0.953125q0.078125 0.359375 0.078125 1.296875l0 1.875q0 1.96875 0.078125 2.484375q0.09375 0.515625 0.359375 1.0l-1.46875 0q-0.21875 -0.4375 -0.28125 -1.03125zm-0.109375 -3.140625q-0.765625 0.3125 -2.296875 0.53125q-0.875 0.125 -1.234375 0.28125q-0.359375 0.15625 -0.5625 0.46875q-0.1875 0.296875 -0.1875 0.65625q0 0.5625 0.421875 0.9375q0.4375 0.375 1.25 0.375q0.8125 0 1.4375 -0.34375q0.640625 -0.359375 0.9375 -0.984375q0.234375 -0.46875 0.234375 -1.40625l0 -0.515625zm3.3359375 4.859375l1.375 0.203125q0.078125 0.640625 0.46875 0.921875q0.53125 0.390625 1.4375 0.390625q0.96875 0 1.5 -0.390625q0.53125 -0.390625 0.71875 -1.09375q0.109375 -0.421875 0.109375 -1.8125q-0.921875 1.09375 -2.296875 1.09375q-1.71875 0 -2.65625 -1.234375q-0.9375 -1.234375 -0.9375 -2.96875q0 -1.1875 0.421875 -2.1875q0.4375 -1.0 1.25 -1.546875q0.828125 -0.546875 1.921875 -0.546875q1.46875 0 2.421875 1.1875l0 -1.0l1.296875 0l0 7.171875q0 1.9375 -0.390625 2.75q-0.390625 0.8125 -1.25 1.28125q-0.859375 0.46875 -2.109375 0.46875q-1.484375 0 -2.40625 -0.671875q-0.90625 -0.671875 -0.875 -2.015625zm1.171875 -4.984375q0 1.625 0.640625 2.375q0.65625 0.75 1.625 0.75q0.96875 0 1.625 -0.734375q0.65625 -0.75 0.65625 -2.34375q0 -1.53125 -0.671875 -2.296875q-0.671875 -0.78125 -1.625 -0.78125q-0.9375 0 -1.59375 0.765625q-0.65625 0.765625 -0.65625 2.265625zm13.6640625 1.625l1.453125 0.171875q-0.34375 1.28125 -1.28125 1.984375q-0.921875 0.703125 -2.359375 0.703125q-1.828125 0 -2.890625 -1.125q-1.0625 -1.125 -1.0625 -3.140625q0 -2.09375 1.078125 -3.25q1.078125 -1.15625 2.796875 -1.15625q1.65625 0 2.703125 1.140625q1.0625 1.125 1.0625 3.171875q0 0.125 0 0.375l-6.1875 0q0.078125 1.375 0.765625 2.109375q0.703125 0.71875 1.734375 0.71875q0.78125 0 1.328125 -0.40625q0.546875 -0.40625 0.859375 -1.296875zm-4.609375 -2.28125l4.625 0q-0.09375 -1.046875 -0.53125 -1.5625q-0.671875 -0.8125 -1.734375 -0.8125q-0.96875 0 -1.640625 0.65625q-0.65625 0.640625 -0.71875 1.71875z" fill-rule="nonzero"></path><path fill="#eeeeee" d="m292.7813 22.32343l0 0c0 7.874544 28.557251 14.258125 63.784393 14.258125c35.227142 0 63.784393 -6.383581 63.784393 -14.258125l0 85.54875c0 7.874542 -28.557251 14.258125 -63.784393 14.258125c-35.227142 0 -63.784393 -6.383583 -63.784393 -14.258125z" fill-rule="evenodd"></path><path fill="#f4f4f4" d="m292.7813 22.32343l0 0c0 -7.874546 28.557251 -14.258126 63.784393 -14.258126c35.227142 0 63.784393 6.38358 63.784393 14.258126l0 0c0 7.874544 -28.557251 14.258125 -63.784393 14.258125c-35.227142 0 -63.784393 -6.383581 -63.784393 -14.258125z" fill-rule="evenodd"></path><path fill="#000000" fill-opacity="0.0" d="m420.3501 22.32343l0 0c0 7.874544 -28.557251 14.258125 -63.784393 14.258125c-35.227142 0 -63.784393 -6.383581 -63.784393 -14.258125l0 0c0 -7.874546 28.557251 -14.258126 63.784393 -14.258126c35.227142 0 63.784393 6.38358 63.784393 14.258126l0 85.54875c0 7.874542 -28.557251 14.258125 -63.784393 14.258125c-35.227142 0 -63.784393 -6.383583 -63.784393 -14.258125l0 -85.54875" fill-rule="evenodd"></path><path stroke="#595959" stroke-width="1.0" stroke-linejoin="round" stroke-linecap="butt" d="m420.3501 22.32343l0 0c0 7.874544 -28.557251 14.258125 -63.784393 14.258125c-35.227142 0 -63.784393 -6.383581 -63.784393 -14.258125l0 0c0 -7.874546 28.557251 -14.258126 63.784393 -14.258126c35.227142 0 63.784393 6.38358 63.784393 14.258126l0 85.54875c0 7.874542 -28.557251 14.258125 -63.784393 14.258125c-35.227142 0 -63.784393 -6.383583 -63.784393 -14.258125l0 -85.54875" fill-rule="evenodd"></path><path fill="#000000" d="m303.6407 71.26687l0 -17.1875l6.46875 0q1.71875 0 2.625 0.171875q1.265625 0.203125 2.109375 0.796875q0.859375 0.59375 1.375 1.671875q0.53125 1.0625 0.53125 2.328125q0 2.203125 -1.40625 3.71875q-1.390625 1.515625 -5.03125 1.515625l-4.40625 0l0 6.984375l-2.265625 0zm2.265625 -9.015625l4.4375 0q2.203125 0 3.125 -0.8125q0.9375 -0.828125 0.9375 -2.3125q0 -1.078125 -0.546875 -1.84375q-0.546875 -0.765625 -1.4375 -1.015625q-0.578125 -0.15625 -2.125 -0.15625l-4.390625 0l0 6.140625zm25.992188 2.984375l2.28125 0.578125q-0.71875 2.796875 -2.578125 4.28125q-1.859375 1.46875 -4.546875 1.46875q-2.765625 0 -4.515625 -1.125q-1.734375 -1.140625 -2.640625 -3.28125q-0.90625 -2.15625 -0.90625 -4.609375q0 -2.6875 1.015625 -4.6875q1.03125 -2.0 2.921875 -3.03125q1.890625 -1.03125 4.171875 -1.03125q2.578125 0 4.328125 1.3125q1.765625 1.3125 2.453125 3.6875l-2.234375 0.53125q-0.609375 -1.875 -1.75 -2.734375q-1.125 -0.859375 -2.84375 -0.859375q-1.984375 0 -3.3125 0.953125q-1.328125 0.953125 -1.875 2.546875q-0.53125 1.59375 -0.53125 3.296875q0 2.1875 0.625 3.828125q0.640625 1.640625 1.984375 2.453125q1.359375 0.796875 2.921875 0.796875q1.921875 0 3.234375 -1.09375q1.328125 -1.109375 1.796875 -3.28125z" fill-rule="nonzero"></path><path fill="#000000" d="m308.25006 89.53999l1.390625 0.1875q-0.234375 1.421875 -1.171875 2.234375q-0.921875 0.8125 -2.28125 0.8125q-1.703125 0 -2.75 -1.109375q-1.03125 -1.125 -1.03125 -3.203125q0 -1.34375 0.4375 -2.34375q0.453125 -1.015625 1.359375 -1.515625q0.921875 -0.5 1.984375 -0.5q1.359375 0 2.21875 0.6875q0.859375 0.671875 1.09375 1.9375l-1.359375 0.203125q-0.203125 -0.828125 -0.703125 -1.25q-0.484375 -0.421875 -1.1875 -0.421875q-1.0625 0 -1.734375 0.765625q-0.65625 0.75 -0.65625 2.40625q0 1.671875 0.640625 2.4375q0.640625 0.75 1.671875 0.75q0.828125 0 1.375 -0.5q0.5625 -0.515625 0.703125 -1.578125zm2.0625 -1.109375q0 -2.296875 1.28125 -3.40625q1.078125 -0.921875 2.609375 -0.921875q1.71875 0 2.796875 1.125q1.09375 1.109375 1.09375 3.09375q0 1.59375 -0.484375 2.515625q-0.484375 0.921875 -1.40625 1.4375q-0.90625 0.5 -2.0 0.5q-1.734375 0 -2.8125 -1.109375q-1.078125 -1.125 -1.078125 -3.234375zm1.453125 0q0 1.59375 0.6875 2.390625q0.703125 0.796875 1.75 0.796875q1.046875 0 1.734375 -0.796875q0.703125 -0.796875 0.703125 -2.4375q0 -1.53125 -0.703125 -2.328125q-0.6875 -0.796875 -1.734375 -0.796875q-1.046875 0 -1.75 0.796875q-0.6875 0.78125 -0.6875 2.375zm7.9765625 4.15625l0 -8.296875l1.25 0l0 1.15625q0.390625 -0.609375 1.03125 -0.96875q0.65625 -0.375 1.484375 -0.375q0.921875 0 1.515625 0.390625q0.59375 0.375 0.828125 1.0625q0.984375 -1.453125 2.5625 -1.453125q1.234375 0 1.890625 0.6875q0.671875 0.671875 0.671875 2.09375l0 5.703125l-1.390625 0l0 -5.234375q0 -0.84375 -0.140625 -1.203125q-0.140625 -0.375 -0.5 -0.59375q-0.359375 -0.234375 -0.84375 -0.234375q-0.875 0 -1.453125 0.578125q-0.578125 0.578125 -0.578125 1.859375l0 4.828125l-1.40625 0l0 -5.390625q0 -0.9375 -0.34375 -1.40625q-0.34375 -0.46875 -1.125 -0.46875q-0.59375 0 -1.09375 0.3125q-0.5 0.3125 -0.734375 0.921875q-0.21875 0.59375 -0.21875 1.71875l0 4.3125l-1.40625 0zm13.328125 3.1875l0 -11.484375l1.28125 0l0 1.078125q0.453125 -0.640625 1.015625 -0.953125q0.578125 -0.3125 1.390625 -0.3125q1.0625 0 1.875 0.546875q0.8125 0.546875 1.21875 1.546875q0.421875 0.984375 0.421875 2.171875q0 1.28125 -0.46875 2.296875q-0.453125 1.015625 -1.328125 1.5625q-0.859375 0.546875 -1.828125 0.546875q-0.703125 0 -1.265625 -0.296875q-0.546875 -0.296875 -0.90625 -0.75l0 4.046875l-1.40625 0zm1.265625 -7.296875q0 1.609375 0.640625 2.375q0.65625 0.765625 1.578125 0.765625q0.9375 0 1.609375 -0.796875q0.671875 -0.796875 0.671875 -2.453125q0 -1.59375 -0.65625 -2.375q-0.65625 -0.796875 -1.5625 -0.796875q-0.890625 0 -1.59375 0.84375q-0.6875 0.84375 -0.6875 2.4375zm13.0703125 4.109375l0 -1.21875q-0.96875 1.40625 -2.640625 1.40625q-0.734375 0 -1.375 -0.28125q-0.625 -0.28125 -0.9375 -0.703125q-0.3125 -0.4375 -0.4375 -1.046875q-0.078125 -0.421875 -0.078125 -1.3125l0 -5.140625l1.40625 0l0 4.59375q0 1.109375 0.078125 1.484375q0.140625 0.5625 0.5625 0.875q0.4375 0.3125 1.0625 0.3125q0.640625 0 1.1875 -0.3125q0.5625 -0.328125 0.78125 -0.890625q0.234375 -0.5625 0.234375 -1.625l0 -4.4375l1.40625 0l0 8.296875l-1.25 0zm6.5234375 -1.265625l0.203125 1.25q-0.59375 0.125 -1.0625 0.125q-0.765625 0 -1.1875 -0.234375q-0.421875 -0.25 -0.59375 -0.640625q-0.171875 -0.40625 -0.171875 -1.671875l0 -4.765625l-1.03125 0l0 -1.09375l1.03125 0l0 -2.0625l1.40625 -0.84375l0 2.90625l1.40625 0l0 1.09375l-1.40625 0l0 4.84375q0 0.609375 0.0625 0.78125q0.078125 0.171875 0.25 0.28125q0.171875 0.09375 0.484375 0.09375q0.234375 0 0.609375 -0.0625zm1.3828125 -8.578125l0 -1.609375l1.40625 0l0 1.609375l-1.40625 0zm0 9.84375l0 -8.296875l1.40625 0l0 8.296875l-1.40625 0zm3.5546875 0l0 -8.296875l1.265625 0l0 1.171875q0.90625 -1.359375 2.640625 -1.359375q0.75 0 1.375 0.265625q0.625 0.265625 0.9375 0.703125q0.3125 0.4375 0.4375 1.046875q0.078125 0.390625 0.078125 1.359375l0 5.109375l-1.40625 0l0 -5.046875q0 -0.859375 -0.171875 -1.28125q-0.15625 -0.4375 -0.578125 -0.6875q-0.40625 -0.25 -0.96875 -0.25q-0.90625 0 -1.5625 0.578125q-0.640625 0.5625 -0.640625 2.15625l0 4.53125l-1.40625 0zm8.6328125 0.6875l1.375 0.203125q0.078125 0.640625 0.46875 0.921875q0.53125 0.390625 1.4375 0.390625q0.96875 0 1.5 -0.390625q0.53125 -0.390625 0.71875 -1.09375q0.109375 -0.421875 0.109375 -1.8125q-0.921875 1.09375 -2.296875 1.09375q-1.71875 0 -2.65625 -1.234375q-0.9375 -1.234375 -0.9375 -2.96875q0 -1.1875 0.421875 -2.1875q0.4375 -1.0 1.25 -1.546875q0.828125 -0.546875 1.921875 -0.546875q1.46875 0 2.421875 1.1875l0 -1.0l1.296875 0l0 7.171875q0 1.9375 -0.390625 2.75q-0.390625 0.8125 -1.25 1.28125q-0.859375 0.46875 -2.109375 0.46875q-1.484375 0 -2.40625 -0.671875q-0.90625 -0.671875 -0.875 -2.015625zm1.171875 -4.984375q0 1.625 0.640625 2.375q0.65625 0.75 1.625 0.75q0.96875 0 1.625 -0.734375q0.65625 -0.75 0.65625 -2.34375q0 -1.53125 -0.671875 -2.296875q-0.671875 -0.78125 -1.625 -0.78125q-0.9375 0 -1.59375 0.765625q-0.65625 0.765625 -0.65625 2.265625z" fill-rule="nonzero"></path><path fill="#eeeeee" d="m566.3425 129.25813l0 0c0 7.874542 28.557251 14.258118 63.784363 14.258118c35.227173 0 63.784424 -6.3835754 63.784424 -14.258118l0 85.54875c0 7.874542 -28.557251 14.258118 -63.784424 14.258118c-35.22711 0 -63.784363 -6.3835754 -63.784363 -14.258118z" fill-rule="evenodd"></path><path fill="#f4f4f4" d="m566.3425 129.25813l0 0c0 -7.87455 28.557251 -14.258133 63.784363 -14.258133c35.227173 0 63.784424 6.383583 63.784424 14.258133l0 0c0 7.874542 -28.557251 14.258118 -63.784424 14.258118c-35.22711 0 -63.784363 -6.3835754 -63.784363 -14.258118z" fill-rule="evenodd"></path><path fill="#000000" fill-opacity="0.0" d="m693.9113 129.25813l0 0c0 7.874542 -28.557251 14.258118 -63.784424 14.258118c-35.22711 0 -63.784363 -6.3835754 -63.784363 -14.258118l0 0c0 -7.87455 28.557251 -14.258133 63.784363 -14.258133c35.227173 0 63.784424 6.383583 63.784424 14.258133l0 85.54875c0 7.874542 -28.557251 14.258118 -63.784424 14.258118c-35.22711 0 -63.784363 -6.3835754 -63.784363 -14.258118l0 -85.54875" fill-rule="evenodd"></path><path stroke="#595959" stroke-width="1.0" stroke-linejoin="round" stroke-linecap="butt" d="m693.9113 129.25813l0 0c0 7.874542 -28.557251 14.258118 -63.784424 14.258118c-35.22711 0 -63.784363 -6.3835754 -63.784363 -14.258118l0 0c0 -7.87455 28.557251 -14.258133 63.784363 -14.258133c35.227173 0 63.784424 6.383583 63.784424 14.258133l0 85.54875c0 7.874542 -28.557251 14.258118 -63.784424 14.258118c-35.22711 0 -63.784363 -6.3835754 -63.784363 -14.258118l0 -85.54875" fill-rule="evenodd"></path><path fill="#000000" d="m580.1394 185.30156l-4.71875 -12.171875l1.734375 0l3.171875 8.84375q0.375 1.0625 0.640625 1.984375q0.28125 -0.984375 0.65625 -1.984375l3.28125 -8.84375l1.640625 0l-4.765625 12.171875l-1.640625 0zm7.8858643 -10.453125l0 -1.71875l1.5 0l0 1.71875l-1.5 0zm0 10.453125l0 -8.8125l1.5 0l0 8.8125l-1.5 0zm3.2403564 -2.625l1.484375 -0.234375q0.125 0.890625 0.6875 1.359375q0.578125 0.46875 1.59375 0.46875q1.03125 0 1.53125 -0.421875q0.5 -0.421875 0.5 -0.984375q0 -0.5 -0.4375 -0.796875q-0.3125 -0.1875 -1.53125 -0.5q-1.640625 -0.421875 -2.28125 -0.71875q-0.640625 -0.296875 -0.96875 -0.828125q-0.328125 -0.546875 -0.328125 -1.1875q0 -0.59375 0.265625 -1.09375q0.28125 -0.5 0.75 -0.84375q0.34375 -0.25 0.9375 -0.421875q0.609375 -0.1875 1.296875 -0.1875q1.046875 0 1.828125 0.296875q0.78125 0.296875 1.15625 0.8125q0.375 0.515625 0.515625 1.359375l-1.46875 0.203125q-0.09375 -0.671875 -0.578125 -1.046875q-0.46875 -0.390625 -1.34375 -0.390625q-1.03125 0 -1.46875 0.34375q-0.4375 0.328125 -0.4375 0.78125q0 0.296875 0.1875 0.53125q0.171875 0.234375 0.5625 0.390625q0.234375 0.09375 1.328125 0.390625q1.578125 0.421875 2.203125 0.6875q0.625 0.265625 0.984375 0.78125q0.359375 0.515625 0.359375 1.28125q0 0.75 -0.4375 1.421875q-0.4375 0.65625 -1.265625 1.015625q-0.8125 0.359375 -1.84375 0.359375q-1.71875 0 -2.625 -0.71875q-0.90625 -0.71875 -1.15625 -2.109375zm15.0390625 2.625l0 -1.296875q-1.015625 1.5 -2.796875 1.5q-0.765625 0 -1.453125 -0.296875q-0.671875 -0.3125 -1.0 -0.75q-0.328125 -0.453125 -0.46875 -1.109375q-0.078125 -0.453125 -0.078125 -1.40625l0 -5.453125l1.484375 0l0 4.890625q0 1.171875 0.09375 1.578125q0.140625 0.578125 0.59375 0.921875q0.46875 0.328125 1.140625 0.328125q0.671875 0 1.25 -0.34375q0.59375 -0.34375 0.828125 -0.9375q0.25 -0.59375 0.25 -1.71875l0 -4.71875l1.5 0l0 8.8125l-1.34375 0zm9.62146 -1.09375q-0.828125 0.71875 -1.609375 1.015625q-0.765625 0.28125 -1.640625 0.28125q-1.453125 0 -2.234375 -0.703125q-0.78125 -0.71875 -0.78125 -1.828125q0 -0.640625 0.296875 -1.171875q0.296875 -0.546875 0.765625 -0.859375q0.484375 -0.328125 1.078125 -0.5q0.453125 -0.109375 1.328125 -0.21875q1.8125 -0.21875 2.671875 -0.515625q0 -0.3125 0 -0.390625q0 -0.90625 -0.421875 -1.28125q-0.5625 -0.515625 -1.703125 -0.515625q-1.046875 0 -1.546875 0.375q-0.5 0.359375 -0.75 1.3125l-1.453125 -0.203125q0.203125 -0.9375 0.65625 -1.515625q0.453125 -0.578125 1.3125 -0.890625q0.859375 -0.3125 2.0 -0.3125q1.140625 0 1.84375 0.265625q0.703125 0.265625 1.03125 0.671875q0.328125 0.40625 0.46875 1.015625q0.078125 0.375 0.078125 1.375l0 2.0q0 2.078125 0.09375 2.640625q0.09375 0.546875 0.375 1.046875l-1.5625 0q-0.234375 -0.46875 -0.296875 -1.09375zm-0.125 -3.328125q-0.8125 0.328125 -2.4375 0.5625q-0.921875 0.125 -1.3125 0.296875q-0.375 0.171875 -0.59375 0.5q-0.203125 0.3125 -0.203125 0.703125q0 0.59375 0.453125 1.0q0.453125 0.390625 1.328125 0.390625q0.859375 0 1.53125 -0.375q0.671875 -0.390625 1.0 -1.03125q0.234375 -0.515625 0.234375 -1.5l0 -0.546875zm3.980835 4.421875l0 -12.171875l1.484375 0l0 12.171875l-1.484375 0zm3.8810425 -10.453125l0 -1.71875l1.5 0l0 1.71875l-1.5 0zm0 10.453125l0 -8.8125l1.5 0l0 8.8125l-1.5 0zm3.0528564 0l0 -1.21875l5.609375 -6.4375q-0.953125 0.046875 -1.671875 0.046875l-3.59375 0l0 -1.203125l7.203125 0l0 0.984375l-4.78125 5.59375l-0.921875 1.015625q1.0 -0.0625 1.890625 -0.0625l4.078125 0l0 1.28125l-7.8125 0zm15.2109375 -1.09375q-0.828125 0.71875 -1.609375 1.015625q-0.765625 0.28125 -1.640625 0.28125q-1.453125 0 -2.234375 -0.703125q-0.78125 -0.71875 -0.78125 -1.828125q0 -0.640625 0.296875 -1.171875q0.296875 -0.546875 0.765625 -0.859375q0.484375 -0.328125 1.078125 -0.5q0.453125 -0.109375 1.328125 -0.21875q1.8125 -0.21875 2.671875 -0.515625q0 -0.3125 0 -0.390625q0 -0.90625 -0.421875 -1.28125q-0.5625 -0.515625 -1.703125 -0.515625q-1.046875 0 -1.546875 0.375q-0.5 0.359375 -0.75 1.3125l-1.453125 -0.203125q0.203125 -0.9375 0.65625 -1.515625q0.453125 -0.578125 1.3125 -0.890625q0.859375 -0.3125 2.0 -0.3125q1.140625 0 1.84375 0.265625q0.703125 0.265625 1.03125 0.671875q0.328125 0.40625 0.46875 1.015625q0.078125 0.375 0.078125 1.375l0 2.0q0 2.078125 0.09375 2.640625q0.09375 0.546875 0.375 1.046875l-1.5625 0q-0.234375 -0.46875 -0.296875 -1.09375zm-0.125 -3.328125q-0.8125 0.328125 -2.4375 0.5625q-0.921875 0.125 -1.3125 0.296875q-0.375 0.171875 -0.59375 0.5q-0.203125 0.3125 -0.203125 0.703125q0 0.59375 0.453125 1.0q0.453125 0.390625 1.328125 0.390625q0.859375 0 1.53125 -0.375q0.671875 -0.390625 1.0 -1.03125q0.234375 -0.515625 0.234375 -1.5l0 -0.546875zm7.27771 3.078125l0.203125 1.328125q-0.625 0.125 -1.125 0.125q-0.8125 0 -1.265625 -0.25q-0.4375 -0.265625 -0.625 -0.671875q-0.1875 -0.421875 -0.1875 -1.765625l0 -5.078125l-1.09375 0l0 -1.15625l1.09375 0l0 -2.1875l1.484375 -0.890625l0 3.078125l1.515625 0l0 1.15625l-1.515625 0l0 5.15625q0 0.640625 0.078125 0.828125q0.078125 0.171875 0.25 0.28125q0.1875 0.109375 0.53125 0.109375q0.234375 0 0.65625 -0.0625zm1.548706 -9.109375l0 -1.71875l1.5 0l0 1.71875l-1.5 0zm0 10.453125l0 -8.8125l1.5 0l0 8.8125l-1.5 0zm3.2872314 -4.40625q0 -2.453125 1.359375 -3.625q1.140625 -0.984375 2.78125 -0.984375q1.8125 0 2.96875 1.203125q1.15625 1.1875 1.15625 3.28125q0 1.703125 -0.515625 2.6875q-0.515625 0.96875 -1.484375 1.515625q-0.96875 0.53125 -2.125 0.53125q-1.859375 0 -3.0 -1.1875q-1.140625 -1.1875 -1.140625 -3.421875zm1.53125 0q0 1.6875 0.734375 2.53125q0.75 0.84375 1.875 0.84375q1.109375 0 1.84375 -0.84375q0.734375 -0.84375 0.734375 -2.578125q0 -1.640625 -0.75 -2.484375q-0.734375 -0.84375 -1.828125 -0.84375q-1.125 0 -1.875 0.84375q-0.734375 0.84375 -0.734375 2.53125zm8.668335 4.40625l0 -8.8125l1.34375 0l0 1.25q0.96875 -1.453125 2.796875 -1.453125q0.796875 0 1.46875 0.296875q0.671875 0.28125 1.0 0.75q0.328125 0.453125 0.46875 1.09375q0.078125 0.421875 0.078125 1.453125l0 5.421875l-1.484375 0l0 -5.359375q0 -0.921875 -0.1875 -1.375q-0.171875 -0.453125 -0.625 -0.71875q-0.4375 -0.265625 -1.03125 -0.265625q-0.953125 0 -1.65625 0.609375q-0.6875 0.59375 -0.6875 2.296875l0 4.8125l-1.484375 0z" fill-rule="nonzero"></path><path fill="#000000" fill-opacity="0.0" d="m153.2424 99.8232l104.564545 -31.309616" fill-rule="evenodd"></path><path stroke="#595959" stroke-width="1.0" stroke-linejoin="round" stroke-linecap="butt" d="m153.24239 99.823204l98.81671 -29.588554" fill-rule="evenodd"></path><path fill="#595959" stroke="#595959" stroke-width="1.0" stroke-linecap="butt" d="m252.5329 71.81698l3.8735962 -2.884056l-4.8211823 -0.28059387z" fill-rule="evenodd"></path><path fill="#000000" fill-opacity="0.0" d="m263.085 100.98337l-115.618546 32.50464" fill-rule="evenodd"></path><path stroke="#595959" stroke-width="1.0" stroke-linejoin="round" stroke-linecap="butt" d="m263.08496 100.98337l-109.84244 30.880768" fill-rule="evenodd"></path><path fill="#595959" stroke="#595959" stroke-width="1.0" stroke-linecap="butt" d="m152.79549 130.27406l-3.9217072 2.8182983l4.8157654 0.36187744z" fill-rule="evenodd"></path><path fill="#000000" fill-opacity="0.0" d="m423.87042 64.9783l135.8742 52.282288" fill-rule="evenodd"></path><path stroke="#595959" stroke-width="1.0" stroke-linejoin="round" stroke-linecap="butt" d="m423.87045 64.9783l130.27444 50.127586" fill-rule="evenodd"></path><path fill="#595959" stroke="#595959" stroke-width="1.0" stroke-linecap="butt" d="m553.5517 116.64744l4.8285522 0.088157654l-3.642212 -3.171257z" fill-rule="evenodd"></path><path fill="#000000" fill-opacity="0.0" d="m155.14447 189.26076l384.4391 1.1352692" fill-rule="evenodd"></path><path stroke="#595959" stroke-width="1.0" stroke-linejoin="round" stroke-linecap="butt" d="m155.14447 189.26077l378.43915 1.1175537" fill-rule="evenodd"></path><path fill="#595959" stroke="#595959" stroke-width="1.0" stroke-linecap="butt" d="m533.57874 192.03004l4.5429688 -1.6383209l-4.533203 -1.6651306z" fill-rule="evenodd"></path><path fill="#000000" fill-opacity="0.0" d="m534.21094 162.54202l-379.06146 1.0755157" fill-rule="evenodd"></path><path stroke="#595959" stroke-width="1.0" stroke-linejoin="round" stroke-linecap="butt" d="m534.21094 162.54202l-373.06152 1.0585022" fill-rule="evenodd"></path><path fill="#595959" stroke="#595959" stroke-width="1.0" stroke-linecap="butt" d="m161.14474 161.94879l-4.5334015 1.6646118l4.5427704 1.6388397z" fill-rule="evenodd"></path><path fill="#eeeeee" d="m808.7975 15.193121l0 0c0 7.874546 28.557251 14.258125 63.784424 14.258125c35.22711 0 63.784363 -6.3835793 63.784363 -14.258125l0 85.54875c0 7.874542 -28.557251 14.258125 -63.784363 14.258125c-35.227173 0 -63.784424 -6.383583 -63.784424 -14.258125z" fill-rule="evenodd"></path><path fill="#f4f4f4" d="m808.7975 15.193121l0 0c0 -7.8745456 28.557251 -14.258125 63.784424 -14.258125c35.22711 0 63.784363 6.38358 63.784363 14.258125l0 0c0 7.874546 -28.557251 14.258125 -63.784363 14.258125c-35.227173 0 -63.784424 -6.3835793 -63.784424 -14.258125z" fill-rule="evenodd"></path><path fill="#000000" fill-opacity="0.0" d="m936.3663 15.193121l0 0c0 7.874546 -28.557251 14.258125 -63.784363 14.258125c-35.227173 0 -63.784424 -6.3835793 -63.784424 -14.258125l0 0c0 -7.8745456 28.557251 -14.258125 63.784424 -14.258125c35.22711 0 63.784363 6.38358 63.784363 14.258125l0 85.54875c0 7.874542 -28.557251 14.258125 -63.784363 14.258125c-35.227173 0 -63.784424 -6.383583 -63.784424 -14.258125l0 -85.54875" fill-rule="evenodd"></path><path stroke="#595959" stroke-width="1.0" stroke-linejoin="round" stroke-linecap="butt" d="m936.3663 15.193121l0 0c0 7.874546 -28.557251 14.258125 -63.784363 14.258125c-35.227173 0 -63.784424 -6.3835793 -63.784424 -14.258125l0 0c0 -7.8745456 28.557251 -14.258125 63.784424 -14.258125c35.22711 0 63.784363 6.38358 63.784363 14.258125l0 85.54875c0 7.874542 -28.557251 14.258125 -63.784363 14.258125c-35.227173 0 -63.784424 -6.383583 -63.784424 -14.258125l0 -85.54875" fill-rule="evenodd"></path><path fill="#000000" d="m819.6881 73.63656l0 -17.1875l7.609375 0q2.296875 0 3.484375 0.46875q1.203125 0.46875 1.921875 1.640625q0.71875 1.171875 0.71875 2.578125q0 1.828125 -1.1875 3.09375q-1.1875 1.25 -3.65625 1.59375q0.90625 0.421875 1.375 0.84375q1.0 0.921875 1.890625 2.296875l2.984375 4.671875l-2.859375 0l-2.28125 -3.578125q-0.984375 -1.546875 -1.640625 -2.359375q-0.640625 -0.828125 -1.15625 -1.15625q-0.5 -0.328125 -1.03125 -0.453125q-0.390625 -0.078125 -1.265625 -0.078125l-2.640625 0l0 7.625l-2.265625 0zm2.265625 -9.59375l4.890625 0q1.5625 0 2.4375 -0.328125q0.875 -0.328125 1.328125 -1.03125q0.46875 -0.703125 0.46875 -1.546875q0 -1.21875 -0.890625 -2.0q-0.875 -0.78125 -2.796875 -0.78125l-5.4375 0l0 5.6875zm13.972656 3.375q0 -3.46875 1.921875 -5.125q1.609375 -1.390625 3.921875 -1.390625q2.5625 0 4.1875 1.6875q1.625 1.6875 1.625 4.640625q0 2.40625 -0.71875 3.78125q-0.71875 1.375 -2.09375 2.140625q-1.375 0.765625 -3.0 0.765625q-2.625 0 -4.234375 -1.671875q-1.609375 -1.6875 -1.609375 -4.828125zm2.171875 0q0 2.390625 1.03125 3.578125q1.046875 1.1875 2.640625 1.1875q1.5625 0 2.609375 -1.1875q1.046875 -1.203125 1.046875 -3.65625q0 -2.3125 -1.0625 -3.5q-1.046875 -1.1875 -2.59375 -1.1875q-1.59375 0 -2.640625 1.1875q-1.03125 1.1875 -1.03125 3.578125zm13.910156 6.21875l-1.953125 0l0 -17.1875l2.109375 0l0 6.140625q1.328125 -1.6875 3.40625 -1.6875q1.140625 0 2.171875 0.46875q1.03125 0.46875 1.6875 1.3125q0.65625 0.828125 1.03125 2.015625q0.375 1.171875 0.375 2.53125q0 3.1875 -1.578125 4.9375q-1.578125 1.75 -3.796875 1.75q-2.203125 0 -3.453125 -1.84375l0 1.5625zm-0.03125 -6.3125q0 2.234375 0.609375 3.234375q1.0 1.625 2.703125 1.625q1.375 0 2.375 -1.203125q1.015625 -1.203125 1.015625 -3.578125q0 -2.4375 -0.96875 -3.59375q-0.953125 -1.171875 -2.328125 -1.171875q-1.390625 0 -2.40625 1.203125q-1.0 1.203125 -1.0 3.484375zm10.644531 0.09375q0 -3.46875 1.921875 -5.125q1.609375 -1.390625 3.921875 -1.390625q2.5625 0 4.1875 1.6875q1.625 1.6875 1.625 4.640625q0 2.40625 -0.71875 3.78125q-0.71875 1.375 -2.09375 2.140625q-1.375 0.765625 -3.0 0.765625q-2.625 0 -4.234375 -1.671875q-1.609375 -1.6875 -1.609375 -4.828125zm2.171875 0q0 2.390625 1.03125 3.578125q1.046875 1.1875 2.640625 1.1875q1.5625 0 2.609375 -1.1875q1.046875 -1.203125 1.046875 -3.65625q0 -2.3125 -1.0625 -3.5q-1.046875 -1.1875 -2.59375 -1.1875q-1.59375 0 -2.640625 1.1875q-1.03125 1.1875 -1.03125 3.578125zm16.566406 4.328125l0.3125 1.859375q-0.890625 0.203125 -1.59375 0.203125q-1.15625 0 -1.796875 -0.359375q-0.625 -0.375 -0.890625 -0.96875q-0.25 -0.59375 -0.25 -2.484375l0 -7.171875l-1.546875 0l0 -1.640625l1.546875 0l0 -3.078125l2.09375 -1.265625l0 4.34375l2.125 0l0 1.640625l-2.125 0l0 7.28125q0 0.90625 0.109375 1.171875q0.125 0.25 0.375 0.40625q0.25 0.140625 0.71875 0.140625q0.34375 0 0.921875 -0.078125z" fill-rule="nonzero"></path><path fill="#000000" fill-opacity="0.0" d="m787.4165 30.133406l-347.27383 6.9908886" fill-rule="evenodd"></path><path stroke="#595959" stroke-width="1.0" stroke-linejoin="round" stroke-linecap="butt" d="m787.4165 30.133404l-341.27505 6.8701324" fill-rule="evenodd"></path><path fill="#595959" stroke="#595959" stroke-width="1.0" stroke-linecap="butt" d="m446.10822 35.35214l-4.503937 1.742733l4.5704346 1.5600624z" fill-rule="evenodd"></path><path fill="#000000" fill-opacity="0.0" d="m702.26117 139.28387l82.815125 -44.096367" fill-rule="evenodd"></path><path stroke="#595959" stroke-width="1.0" stroke-linejoin="round" stroke-linecap="butt" d="m702.26117 139.28387l77.519104 -41.276413" fill-rule="evenodd"></path><path fill="#595959" stroke="#595959" stroke-width="1.0" stroke-linecap="butt" d="m780.5566 99.46539l3.229309 -3.5908127l-4.7819214 0.674942z" fill-rule="evenodd"></path></g></svg>

